<svg width="40" height="40" viewBox="0 0 40 40" fill="none" xmlns="http://www.w3.org/2000/svg">
<path d="M3.32129 36.758V3.24203C3.32129 1.92609 4.38809 0.859375 5.70395 0.859375H36.6784V34.3753H5.70395C4.38809 34.3753 3.32129 35.4421 3.32129 36.758ZM3.32129 36.758C3.32129 38.0739 4.38801 39.1406 5.70395 39.1406H36.6784M34.2958 34.3753V39.1406M8.0866 0.859375V34.3753" stroke="#33836E" stroke-width="1.71875" stroke-miterlimit="10" stroke-linecap="round" stroke-linejoin="round"/>
<path d="M22.3822 10.4694V27.148M12.8516 12.8521H31.9128M17.6169 27.148H27.1475M15.2342 12.8521L12.8516 17.6174C12.8516 18.9333 13.9183 20.0001 15.2342 20.0001C16.5502 20.0001 17.6169 18.9333 17.6169 17.6174L15.2342 12.8521ZM29.5302 12.8521L31.9128 17.6174C31.9128 18.9333 30.8461 20.0001 29.5302 20.0001C28.2142 20.0001 27.1475 18.9333 27.1475 17.6174L29.5302 12.8521Z" stroke="#33836E" stroke-width="1.71875" stroke-miterlimit="10" stroke-linecap="round" stroke-linejoin="round"/>
</svg>
