<svg width="40" height="40" viewBox="0 0 40 40" fill="none" xmlns="http://www.w3.org/2000/svg">
<g clip-path="url(#clip0_525_1175)">
<path d="M22.9122 32.1875V37.9607C22.9122 38.6123 22.3839 39.1406 21.7323 39.1406H18.2678C17.6162 39.1406 17.0879 38.6123 17.0879 37.9607V32.3234" stroke="#33836E" stroke-width="1.71875" stroke-miterlimit="10" stroke-linejoin="round"/>
<path d="M22.9121 26.5389H17.0879" stroke="#33836E" stroke-width="1.71875" stroke-miterlimit="10" stroke-linecap="round" stroke-linejoin="round"/>
<path d="M31.0906 27.6337C37.2155 21.5086 37.2154 11.5779 31.0902 5.45301C24.9651 -0.671926 15.0344 -0.671755 8.9095 5.45339C2.78457 11.5785 2.78475 21.5092 8.90989 27.6341C15.035 33.759 24.9657 33.7589 31.0906 27.6337Z" stroke="#33836E" stroke-width="1.71875" stroke-miterlimit="10" stroke-linecap="round" stroke-linejoin="round"/>
<path d="M20.0008 6.42383V26.5412M20.0008 6.42383L23.4625 10.3255M20.0008 6.42383L16.5391 10.3255M27.0007 20.6334L30.9024 17.1717L27.0007 13.71" stroke="#33836E" stroke-width="1.71875" stroke-miterlimit="10" stroke-linecap="round" stroke-linejoin="round"/>
<path d="M30.9016 17.1718H22.946C21.319 17.1718 20 18.4907 20 20.1178" stroke="#33836E" stroke-width="1.71875" stroke-miterlimit="10" stroke-linecap="round" stroke-linejoin="round"/>
</g>
<defs>
<clipPath id="clip0_525_1175">
<rect width="40" height="40" fill="white"/>
</clipPath>
</defs>
</svg>
