<svg width="40" height="40" viewBox="0 0 40 40" fill="none" xmlns="http://www.w3.org/2000/svg">
<g id="Frame" clip-path="url(#clip0_277_408)">
<g id="Group">
<path id="Vector" d="M28.1198 40C14.2188 39.8386 -3.19046 21.9843 0.549759 7.92686C1.30743 3.80571 8.61383 -3.30409 13.3645 1.74345C15.2534 3.74455 17.686 5.30292 17.6234 8.39732C17.6371 10.3494 16.7047 11.8588 15.2928 13.123C13.694 14.7218 13.5461 17.2648 14.9487 19.0382C16.6757 21.2238 18.7416 23.2894 20.9274 25.0171C22.7009 26.4195 25.2438 26.2717 26.8426 24.6728L27.4898 24.0259C28.5754 22.9403 30.0238 22.3423 31.5685 22.3423C34.6591 22.2777 36.227 24.717 38.2225 26.6011C43.2624 31.3946 36.1778 38.6305 32.039 39.4159C30.8316 39.8059 29.5174 40 28.1198 40ZM9.42554 1.71759C6.54423 1.60449 2.70145 5.78626 2.23662 8.2593C-0.790919 19.7836 11.2612 33.0438 21.6297 36.9673C26.6774 38.7724 31.3066 39.028 35.1181 35.8226C37.6588 33.6474 39.6199 30.4226 37.0074 27.8163L34.432 25.2411C32.9334 23.6776 30.2032 23.678 28.7049 25.2412L28.0577 25.8882C25.8424 28.1035 22.3187 28.3085 19.8613 26.365C18.7167 25.4596 17.6029 24.4671 16.5508 23.415C15.4982 22.3624 14.5057 21.2485 13.6008 20.1043C11.6573 17.6471 11.8623 14.1235 14.0776 11.908L14.7247 11.2609C16.2882 9.76362 16.2877 7.03125 14.7247 5.53381L12.1493 2.95845C11.3201 2.12915 10.4207 1.71759 9.42554 1.71759Z" fill="#33836E"/>
<path id="Vector_2" d="M32.192 15.9197C31.7956 15.9197 31.4392 15.6438 31.3527 15.2405C31.005 13.6143 30.1937 12.1235 29.017 10.9483C27.8251 9.75433 26.3085 8.93702 24.6558 8.59798C24.191 8.50221 23.8919 8.04785 23.9875 7.58309C24.0834 7.11834 24.5378 6.81918 25.0024 6.91494C26.9894 7.32416 28.7978 8.29874 30.2321 9.73315C31.6432 11.1424 32.6159 12.93 33.0329 14.8802C33.1324 15.3441 32.837 15.801 32.373 15.9005C32.3123 15.9134 32.2517 15.9197 32.192 15.9197Z" fill="#33836E"/>
<path id="Vector_3" d="M37.0465 20.7471C36.9904 20.7471 36.9336 20.7416 36.8765 20.7301C36.4113 20.6367 36.1098 20.1838 36.2033 19.7186C37.0982 15.2615 35.7133 10.6815 32.4989 7.4669C29.2785 4.2465 24.6909 2.8631 20.227 3.7666C19.7618 3.86119 19.3086 3.56 19.2145 3.09485C19.1204 2.62979 19.4211 2.17644 19.8862 2.08231C24.9162 1.06423 30.0853 2.62299 33.714 6.25174C37.3361 9.87393 38.8965 15.0347 37.8881 20.0567C37.8061 20.465 37.4474 20.7471 37.0465 20.7471Z" fill="#33836E"/>
</g>
</g>
<defs>
<clipPath id="clip0_277_408">
<rect width="40" height="40" fill="white"/>
</clipPath>
</defs>
</svg>
