<svg width="25" height="24" viewBox="0 0 25 24" fill="none" xmlns="http://www.w3.org/2000/svg">
<g id="chat-bubble-check">
<path id="Vector (Stroke)" fill-rule="evenodd" clip-rule="evenodd" d="M8.13678 11.4697C8.42967 11.1768 8.90454 11.1768 9.19744 11.4697L11.6671 13.9393L16.1368 9.46967C16.4297 9.17678 16.9045 9.17678 17.1974 9.46967C17.4903 9.76256 17.4903 10.2374 17.1974 10.5303L12.1974 15.5303C11.9045 15.8232 11.4297 15.8232 11.1368 15.5303L8.13678 12.5303C7.84388 12.2374 7.84388 11.7626 8.13678 11.4697Z" fill="#33836E"/>
<path id="Vector (Stroke)_2" fill-rule="evenodd" clip-rule="evenodd" d="M12.667 2.75C7.55836 2.75 3.41699 6.89137 3.41699 12C3.41699 13.6861 3.86742 15.2647 4.65402 16.6245C4.74365 16.7794 4.77491 16.9613 4.74214 17.1373L4.10441 20.5626L7.52971 19.9248C7.70569 19.8921 7.88759 19.9233 8.04254 20.013C9.40232 20.7996 10.9809 21.25 12.667 21.25C17.7756 21.25 21.917 17.1086 21.917 12C21.917 6.89137 17.7756 2.75 12.667 2.75ZM1.91699 12C1.91699 6.06294 6.72993 1.25 12.667 1.25C18.6041 1.25 23.417 6.06294 23.417 12C23.417 17.9371 18.6041 22.75 12.667 22.75C10.8107 22.75 9.06235 22.2789 7.53715 21.4492L3.30427 22.2373C3.06122 22.2826 2.81148 22.2051 2.63666 22.0303C2.46185 21.8555 2.38441 21.6058 2.42966 21.3627L3.21775 17.1298C2.38812 15.6046 1.91699 13.8563 1.91699 12Z" fill="#33836E"/>
</g>
</svg>
