<svg width="32" height="32" viewBox="0 0 32 32" fill="none" xmlns="http://www.w3.org/2000/svg">
<path fill-rule="evenodd" clip-rule="evenodd" d="M8.97408 13.787C7.29093 15.0785 6.33301 16.7929 6.33301 18.6112C6.33301 20.6971 7.59954 22.657 9.77123 23.981C10.1604 24.2183 10.3399 24.6888 10.2076 25.125L9.63912 27.0001H11.6549L13.461 25.6447C13.6342 25.5148 13.8448 25.4445 14.0613 25.4445H17.3105C17.527 25.4445 17.7376 25.5148 17.9108 25.6447L19.7168 27.0001H21.7327L21.1641 25.125C21.0319 24.6888 21.2113 24.2183 21.6006 23.981C22.8903 23.1947 23.867 22.1759 24.4418 21.0465C24.6923 20.5543 25.2944 20.3584 25.7866 20.6089C26.2788 20.8594 26.4747 21.4614 26.2242 21.9536C25.5665 23.246 24.549 24.368 23.2946 25.2588L23.7249 26.6778C24.0753 27.8338 23.2102 29.0001 22.0023 29.0001H19.6501C19.2605 29.0001 18.8814 28.8736 18.5697 28.6398L16.977 27.4445H14.3948L12.8021 28.6398C12.4904 28.8736 12.1113 29.0001 11.7216 29.0001H9.36949C8.16154 29.0001 7.29644 27.8338 7.64693 26.6778L8.07723 25.2586C5.83225 23.663 4.33301 21.3137 4.33301 18.6112C4.33301 16.0419 5.69265 13.784 7.75652 12.2003C9.81936 10.6173 12.6261 9.66675 15.6859 9.66675C16.9096 9.66675 18.3702 10.0484 19.364 10.3081C19.4401 10.328 19.5136 10.3472 19.584 10.3654C20.1186 10.504 20.4396 11.0498 20.301 11.5844C20.1624 12.119 19.6167 12.44 19.0821 12.3014C19.0296 12.2878 18.9766 12.274 18.9232 12.2602C17.8644 11.985 16.6395 11.6667 15.6859 11.6667C13.0279 11.6667 10.6582 12.4946 8.97408 13.787Z" fill="white"/>
<path fill-rule="evenodd" clip-rule="evenodd" d="M25.9273 8.52884C26.1892 8.72222 26.3405 9.03096 26.333 9.3564L26.2368 13.5118L28.3858 14.4107C28.7578 14.5663 28.9999 14.9301 28.9999 15.3333V19.9999C28.9999 20.3732 28.792 20.7154 28.4608 20.8874L25.8929 22.2208C25.4027 22.4753 24.7991 22.2842 24.5446 21.7941C24.2901 21.3039 24.4811 20.7003 24.9713 20.4458L26.9999 19.3924V15.9989L24.8354 15.0935C24.4557 14.9347 24.212 14.5594 24.2216 14.1478L24.3006 10.7316L19.6495 12.2819C19.1256 12.4566 18.5592 12.1734 18.3846 11.6495C18.2099 11.1255 18.4931 10.5592 19.0171 10.3846L25.0171 8.38458C25.3259 8.28164 25.6655 8.33546 25.9273 8.52884Z" fill="white"/>
<path d="M20.6663 17.3333C20.2982 17.3333 19.9997 17.0349 19.9997 16.6667C19.9997 16.2985 20.2982 16 20.6663 16C21.0345 16 21.333 16.2985 21.333 16.6667C21.333 17.0349 21.0345 17.3333 20.6663 17.3333Z" fill="white"/>
<path fill-rule="evenodd" clip-rule="evenodd" d="M20.6663 17C20.4822 17 20.333 16.8508 20.333 16.6667C20.333 16.4826 20.4822 16.3333 20.6663 16.3333C20.8504 16.3333 20.9997 16.4826 20.9997 16.6667C20.9997 16.8508 20.8504 17 20.6663 17ZM22.333 16.6667C22.333 15.7462 21.5868 15 20.6663 15C19.7459 15 18.9997 15.7462 18.9997 16.6667C18.9997 17.5871 19.7459 18.3333 20.6663 18.3333C21.5868 18.3333 22.333 17.5871 22.333 16.6667Z" fill="white"/>
<path fill-rule="evenodd" clip-rule="evenodd" d="M3.66698 13.329C3.66471 12.7787 3.21787 12.3333 2.66699 12.3333C2.11471 12.3333 1.66699 12.781 1.66699 13.3333H2.66699C1.66699 13.3333 1.66699 13.3337 1.66699 13.3341L1.66699 13.335L1.667 13.3371L1.66702 13.3422L1.66716 13.3558L1.66802 13.3969C1.66894 13.4302 1.67067 13.4753 1.67391 13.5307C1.68037 13.6413 1.69294 13.7942 1.71743 13.9779C1.76603 14.3424 1.86359 14.8433 2.06258 15.3806C2.46071 16.4555 3.30847 17.7697 5.04631 18.2911C5.5753 18.4498 6.13279 18.1496 6.29149 17.6206C6.45018 17.0916 6.15 16.5341 5.62101 16.3754C4.69218 16.0968 4.20661 15.411 3.93807 14.6859C3.80373 14.3232 3.73462 13.9741 3.69989 13.7136C3.68271 13.5848 3.67444 13.4815 3.6705 13.4139C3.66853 13.3803 3.66765 13.3558 3.66726 13.3418L3.66698 13.3291C3.66698 13.3291 3.66698 13.329 3.66698 13.329" fill="white"/>
<path fill-rule="evenodd" clip-rule="evenodd" d="M12.6667 5C10.6588 5 9 6.66291 9 8.75296C9 9.75047 9.37879 10.6527 9.99507 11.3234L8.52238 12.6766C7.57717 11.648 7 10.2665 7 8.75296C7 5.59304 9.51986 3 12.6667 3C15.8135 3 18.3333 5.59304 18.3333 8.75296C18.3333 9.4214 18.2206 10.0654 18.0125 10.6651L16.1231 10.0094C16.2589 9.61808 16.3333 9.19557 16.3333 8.75296C16.3333 6.66291 14.6745 5 12.6667 5Z" fill="white"/>
</svg>
