<svg width="32" height="32" viewBox="0 0 32 32" fill="none" xmlns="http://www.w3.org/2000/svg">
<g id="thumbs-up">
<path id="Vector (Stroke)" fill-rule="evenodd" clip-rule="evenodd" d="M17.8401 5.06727C17.3286 4.42793 16.3364 4.49466 15.9152 5.19674L12.3013 11.2199C11.6386 12.3243 10.4451 13.0001 9.15715 13.0001H5.66699V25.6668H21.9635C22.7151 25.6668 23.3737 25.1637 23.5715 24.4386L26.1169 15.1053C26.4061 14.0451 25.6079 13.0001 24.509 13.0001H18.4089C17.2031 13.0001 16.3383 11.8378 16.6848 10.6829L18.048 6.13883C18.1589 5.76917 18.0812 5.36863 17.8401 5.06727ZM14.2002 4.16775C15.3385 2.27054 18.0197 2.0902 19.4018 3.81788C20.0533 4.63224 20.2633 5.71462 19.9637 6.71352L18.6777 11.0001H24.509C26.9267 11.0001 28.6826 13.299 28.0465 15.6315L25.501 24.9649C25.0659 26.5601 23.617 27.6668 21.9635 27.6668H5.46699C4.47288 27.6668 3.66699 26.8609 3.66699 25.8668V12.8001C3.66699 11.806 4.47288 11.0001 5.46699 11.0001H9.15715C9.74259 11.0001 10.2851 10.6929 10.5863 10.1909L14.2002 4.16775Z" fill="white"/>
<path id="Vector (Stroke)_2" fill-rule="evenodd" clip-rule="evenodd" d="M9.33301 27.6667C8.78072 27.6667 8.33301 27.219 8.33301 26.6667L8.33301 12.0001C8.33301 11.4478 8.78072 11.0001 9.33301 11.0001C9.88529 11.0001 10.333 11.4478 10.333 12.0001V26.6667C10.333 27.219 9.88529 27.6667 9.33301 27.6667Z" fill="white"/>
</g>
</svg>
