<svg width="21" height="26" viewBox="0 0 21 26" fill="none" xmlns="http://www.w3.org/2000/svg">
<path fill-rule="evenodd" clip-rule="evenodd" d="M0.108889 16.1205C0.279566 16.4557 0.62388 16.6667 1 16.6667H8V25.0001C8 25.4332 8.27885 25.8171 8.69076 25.9511C9.10267 26.085 9.55398 25.9385 9.80874 25.5882L20.4754 10.9216C20.6966 10.6174 20.7285 10.2148 20.5578 9.87962C20.3871 9.54445 20.0428 9.3334 19.6667 9.3334L12.6667 9.3334V1.00007C12.6667 0.56693 12.3878 0.183031 11.9759 0.0490854C11.564 -0.08486 11.1127 0.0616018 10.8579 0.411896L0.191268 15.0786C-0.0299577 15.3827 -0.0617876 15.7853 0.108889 16.1205ZM10.6667 4.07525V10.3334C10.6667 10.8857 11.1144 11.3334 11.6667 11.3334L17.7029 11.3334L10 21.9249V15.6667C10 15.1145 9.55229 14.6667 9 14.6667H2.96377L10.6667 4.07525Z" fill="white"/>
</svg>
