<svg width="211" height="38" viewBox="0 0 211 38" fill="none" xmlns="http://www.w3.org/2000/svg">
<g id="Frame" clip-path="url(#clip0_277_2406)">
<path id="Vector" d="M78.3009 10.8503H72.9988V1.18843C73.0039 0.949038 72.9633 0.774976 72.8822 0.677056C72.7959 0.5791 72.6434 0.530139 72.4199 0.535583H71.4143C71.1909 0.530139 71.0285 0.5791 70.9371 0.677056C70.8457 0.774976 70.8 0.949038 70.8051 1.18843V23.0583C70.8 23.2976 70.8457 23.4718 70.9371 23.5696C71.0285 23.6676 71.1909 23.7165 71.4143 23.7111H72.4199C72.6434 23.7165 72.7959 23.6676 72.8822 23.5696C72.9633 23.4718 73.0039 23.2976 72.9988 23.0583V13.0699H78.3009V16.0077C78.306 17.7213 78.6209 19.1848 79.2557 20.4034C79.8901 21.6166 80.8197 22.5469 82.0488 23.1888C83.2727 23.8362 84.7757 24.1627 86.5584 24.1681C88.3206 24.1627 89.8086 23.8362 91.0274 23.1888C92.2463 22.5469 93.1704 21.6166 93.8001 20.4034C94.4349 19.1848 94.7497 17.7213 94.7549 16.0077V8.23898C94.7497 6.52529 94.4349 5.06189 93.8001 3.84329C93.1704 2.63011 92.2463 1.6998 91.0274 1.0524C89.8086 0.410442 88.3206 0.0840571 86.5584 0.0786133C84.7757 0.0840571 83.2727 0.410442 82.0488 1.0524C80.8197 1.6998 79.8901 2.63011 79.2557 3.84329C78.6209 5.06189 78.306 6.52529 78.3009 8.23898V10.8503ZM92.5611 16.0077C92.5611 17.2862 92.3274 18.3633 91.8652 19.2555C91.403 20.1423 90.7276 20.8169 89.8338 21.2793C88.9452 21.7471 87.8533 21.9757 86.5584 21.9811C85.2584 21.9757 84.1562 21.7471 83.2625 21.2793C82.3636 20.8169 81.6831 20.1423 81.2209 19.2555C80.7586 18.3633 80.5253 17.2862 80.5253 16.0077V8.23898C80.5253 6.96057 80.7586 5.87794 81.2209 4.99119C81.6831 4.1044 82.3636 3.42979 83.2625 2.96194C84.1562 2.49953 85.2584 2.26561 86.5584 2.26561C87.8533 2.26561 88.9452 2.49953 89.8338 2.96194C90.7276 3.42979 91.403 4.1044 91.8652 4.99119C92.3274 5.87794 92.5611 6.96057 92.5611 8.23898V16.0077ZM99.478 0.535583C99.2542 0.530139 99.0919 0.5791 99.0005 0.677056C98.909 0.774976 98.8633 0.949038 98.8684 1.18843V23.0583C98.8633 23.2976 98.909 23.4718 99.0005 23.5696C99.0919 23.6676 99.2542 23.7165 99.478 23.7111H100.483C100.707 23.7165 100.859 23.6676 100.946 23.5696C101.027 23.4718 101.067 23.2976 101.063 23.0583V14.9958H107.613C109.041 14.9903 110.269 14.702 111.296 14.1308C112.321 13.565 113.109 12.7436 113.662 11.6664C114.215 10.5947 114.495 9.29984 114.5 7.78203C114.495 6.26419 114.215 4.96396 113.662 3.88677C113.109 2.80961 112.321 1.98271 111.296 1.40604C110.269 0.829378 109.041 0.541027 107.613 0.535583H99.478ZM101.063 12.8088V2.75521H107.431C108.421 2.76065 109.274 2.96194 109.985 3.35906C110.696 3.76167 111.25 4.33832 111.63 5.08363C112.017 5.83442 112.209 6.73206 112.214 7.78203C112.209 8.832 112.017 9.72964 111.63 10.4804C111.25 11.2257 110.696 11.8024 109.985 12.1995C109.274 12.6021 108.421 12.8034 107.431 12.8088H101.063ZM132.6 0.535583C132.462 0.535583 132.34 0.562804 132.234 0.611762C132.127 0.666168 132.036 0.747755 131.96 0.862007L123.184 14.5388C122.468 15.6649 121.828 16.7421 121.254 17.7649C120.686 18.7931 120.183 19.7615 119.741 20.6754H119.65C119.771 19.5493 119.863 18.4014 119.924 17.2263C119.985 16.0566 120.015 14.8652 120.015 13.6575V1.18843C120.02 0.949038 119.979 0.774976 119.898 0.677056C119.812 0.5791 119.659 0.530139 119.436 0.535583H118.431C118.207 0.530139 118.045 0.5791 117.953 0.677056C117.862 0.774976 117.816 0.949038 117.821 1.18843V23.0583C117.816 23.2976 117.862 23.4718 117.953 23.5696C118.045 23.6676 118.207 23.7165 118.431 23.7111H119.436C119.573 23.7111 119.695 23.6785 119.802 23.6186C119.908 23.5533 120 23.4663 120.076 23.3521L129.065 9.3488C129.781 8.17369 130.411 7.10198 130.959 6.13904C131.503 5.17611 131.96 4.32202 132.325 3.57127H132.386C132.249 4.73004 132.153 5.8616 132.087 6.97142C132.021 8.08121 131.99 9.16929 131.99 10.2301V23.0583C131.99 23.2976 132.031 23.4718 132.122 23.5696C132.219 23.6676 132.376 23.7165 132.6 23.7111H133.605C133.828 23.7165 133.991 23.6676 134.082 23.5696C134.174 23.4718 134.22 23.2976 134.214 23.0583V1.18843C134.22 0.949038 134.174 0.774976 134.082 0.677056C133.991 0.5791 133.828 0.530139 133.605 0.535583H132.6ZM138.328 15.975C138.333 17.6887 138.658 19.1576 139.308 20.3762C139.958 21.5948 140.903 22.5306 142.142 23.1834C143.381 23.8308 144.894 24.1627 146.677 24.1681C148.206 24.1681 149.511 23.9559 150.597 23.5261C151.679 23.1018 152.568 22.4653 153.259 21.622C153.954 20.7734 154.482 19.7179 154.843 18.4558C154.904 18.26 154.904 18.0968 154.843 17.9607C154.782 17.8302 154.66 17.7213 154.477 17.6398L153.533 17.2481C153.35 17.1991 153.193 17.21 153.055 17.2753C152.923 17.346 152.817 17.4766 152.74 17.6724C152.461 18.6625 152.07 19.4731 151.568 20.1096C151.065 20.7461 150.415 21.2195 149.617 21.5241C148.82 21.8288 147.84 21.9811 146.677 21.9811C145.362 21.9757 144.255 21.7363 143.34 21.2684C142.431 20.7951 141.741 20.1151 141.268 19.2229C140.791 18.3361 140.557 17.2644 140.552 16.0077V8.23898C140.552 6.97142 140.786 5.89427 141.253 5.00748C141.72 4.12069 142.406 3.44068 143.315 2.97283C144.224 2.50497 145.346 2.26561 146.677 2.26561C147.82 2.26017 148.784 2.41249 149.572 2.7117C150.364 3.0109 151.009 3.47331 151.512 4.09354C152.009 4.71371 152.4 5.50799 152.68 6.47633C152.756 6.65588 152.857 6.77558 152.984 6.84087C153.111 6.90613 153.274 6.91702 153.472 6.86806L154.416 6.50899C154.64 6.43285 154.777 6.32944 154.828 6.20434C154.879 6.07919 154.863 5.89968 154.782 5.66031C154.421 4.40905 153.893 3.36998 153.203 2.54304C152.512 1.71613 151.628 1.10136 150.552 0.693349C149.475 0.279896 148.185 0.0786133 146.677 0.0786133C144.874 0.0840571 143.355 0.410442 142.116 1.06329C140.877 1.71613 139.933 2.65185 139.293 3.87048C138.653 5.08907 138.333 6.55795 138.328 8.27161V15.975ZM156.976 0.535583C156.753 0.530139 156.59 0.5791 156.499 0.677056C156.407 0.774976 156.361 0.949038 156.366 1.18843V2.1024C156.361 2.34176 156.407 2.51041 156.499 2.61377C156.59 2.71169 156.753 2.75521 156.976 2.75521H163.131V23.0583C163.126 23.2976 163.172 23.4718 163.263 23.5696C163.354 23.6676 163.517 23.7165 163.741 23.7111H164.746C164.97 23.7165 165.132 23.6676 165.223 23.5696C165.315 23.4718 165.361 23.2976 165.355 23.0583V2.75521H171.511C171.734 2.75521 171.896 2.71169 171.988 2.61377C172.079 2.51041 172.125 2.34176 172.12 2.1024V1.18843C172.125 0.949038 172.079 0.774976 171.988 0.677056C171.896 0.5791 171.734 0.530139 171.511 0.535583H156.976ZM174.253 15.975C174.258 17.6887 174.583 19.1576 175.228 20.3762C175.873 21.5948 176.817 22.5306 178.061 23.1834C179.306 23.8308 180.829 24.1627 182.632 24.1681C184.425 24.1627 185.938 23.8308 187.182 23.1834C188.422 22.5306 189.366 21.5948 190.011 20.3762C190.651 19.1576 190.976 17.6887 190.981 15.975V8.27161C190.976 6.55795 190.651 5.08907 190.011 3.87048C189.366 2.65185 188.422 1.71613 187.182 1.06329C185.938 0.410442 184.425 0.0840571 182.632 0.0786133C180.829 0.0840571 179.306 0.410442 178.061 1.06329C176.817 1.71613 175.873 2.65185 175.228 3.87048C174.583 5.08907 174.258 6.55795 174.253 8.27161V15.975ZM188.787 15.975C188.787 17.2535 188.549 18.3361 188.081 19.2283C187.609 20.1205 186.918 20.806 186.005 21.2739C185.09 21.7417 183.963 21.9757 182.632 21.9811C181.302 21.9757 180.174 21.7417 179.255 21.2739C178.336 20.806 177.64 20.1205 177.163 19.2283C176.685 18.3361 176.447 17.2535 176.447 15.975V8.27161C176.447 6.9932 176.685 5.9106 177.163 5.01841C177.64 4.12069 178.336 3.44068 179.255 2.97283C180.174 2.50497 181.302 2.26561 182.632 2.26561C183.963 2.26561 185.09 2.50497 186.005 2.97283C186.918 3.44068 187.609 4.12069 188.081 5.01841C188.549 5.9106 188.787 6.9932 188.787 8.27161V15.975ZM195.704 0.535583C195.48 0.530139 195.318 0.5791 195.227 0.677056C195.135 0.774976 195.09 0.949038 195.095 1.18843V23.0583C195.09 23.2976 195.135 23.4718 195.227 23.5696C195.318 23.6676 195.48 23.7165 195.704 23.7111H204.632C205.927 23.7056 207.049 23.4609 207.989 22.9712C208.928 22.4816 209.655 21.7744 210.162 20.8495C210.675 19.9192 210.934 18.7985 210.939 17.4766C210.939 15.9098 210.635 14.6531 210.03 13.701C209.421 12.7544 208.517 12.107 207.313 11.7643V11.699C208.273 11.2583 208.989 10.6001 209.467 9.72419C209.939 8.84833 210.178 7.7657 210.178 6.47633C210.173 5.19788 209.944 4.12069 209.487 3.2394C209.03 2.35809 208.365 1.6835 207.486 1.2265C206.613 0.769531 205.551 0.535583 204.297 0.535583H195.704ZM207.923 6.77013C207.918 8.12472 207.588 9.14206 206.922 9.82756C206.257 10.5076 205.292 10.8503 204.023 10.8503H197.288V2.75521H204.023C205.318 2.75521 206.293 3.08708 206.943 3.75622C207.598 4.42539 207.923 5.43184 207.923 6.77013ZM207.588 20.4143C207.237 20.7734 206.806 21.0454 206.293 21.2249C205.78 21.4044 205.196 21.4915 204.541 21.4915H197.288V12.972H204.541C205.196 12.972 205.78 13.0591 206.293 13.2386C206.806 13.4181 207.237 13.6902 207.588 14.0492C207.938 14.4246 208.197 14.8761 208.37 15.4038C208.542 15.9315 208.624 16.5463 208.624 17.2481C208.624 17.9498 208.542 18.5646 208.37 19.0869C208.197 19.6146 207.938 20.0553 207.588 20.4143Z" fill="#140A32"/>
<path id="Vector_2" d="M78.3009 10.8503H72.9988V1.18843C73.0039 0.949038 72.9633 0.774976 72.8822 0.677056C72.7959 0.5791 72.6434 0.530139 72.4199 0.535583H71.4143C71.1909 0.530139 71.0285 0.5791 70.9371 0.677056C70.8457 0.774976 70.8 0.949038 70.8051 1.18843V23.0583C70.8 23.2976 70.8457 23.4718 70.9371 23.5696C71.0285 23.6676 71.1909 23.7165 71.4143 23.7111H72.4199C72.6434 23.7165 72.7959 23.6676 72.8822 23.5696C72.9633 23.4718 73.0039 23.2976 72.9988 23.0583V13.0699H78.3009V16.0077C78.306 17.7213 78.6209 19.1848 79.2557 20.4034C79.8901 21.6166 80.8197 22.5469 82.0488 23.1888C83.2727 23.8362 84.7757 24.1627 86.5584 24.1681C88.3206 24.1627 89.8086 23.8362 91.0274 23.1888C92.2463 22.5469 93.1704 21.6166 93.8001 20.4034C94.4349 19.1848 94.7497 17.7213 94.7549 16.0077V8.23898C94.7497 6.52529 94.4349 5.06189 93.8001 3.84329C93.1704 2.63011 92.2463 1.6998 91.0274 1.0524C89.8086 0.410442 88.3206 0.0840571 86.5584 0.0786133C84.7757 0.0840571 83.2727 0.410442 82.0488 1.0524C80.8197 1.6998 79.8901 2.63011 79.2557 3.84329C78.6209 5.06189 78.306 6.52529 78.3009 8.23898V10.8503ZM92.5611 16.0077C92.5611 17.2862 92.3274 18.3633 91.8652 19.2555C91.403 20.1423 90.7276 20.8169 89.8338 21.2793C88.9452 21.7471 87.8533 21.9757 86.5584 21.9811C85.2584 21.9757 84.1562 21.7471 83.2625 21.2793C82.3636 20.8169 81.6831 20.1423 81.2209 19.2555C80.7586 18.3633 80.5253 17.2862 80.5253 16.0077V8.23898C80.5253 6.96057 80.7586 5.87794 81.2209 4.99119C81.6831 4.1044 82.3636 3.42979 83.2625 2.96194C84.1562 2.49953 85.2584 2.26561 86.5584 2.26561C87.8533 2.26561 88.9452 2.49953 89.8338 2.96194C90.7276 3.42979 91.403 4.1044 91.8652 4.99119C92.3274 5.87794 92.5611 6.96057 92.5611 8.23898V16.0077ZM99.478 0.535583C99.2542 0.530139 99.0919 0.5791 99.0005 0.677056C98.909 0.774976 98.8633 0.949038 98.8684 1.18843V23.0583C98.8633 23.2976 98.909 23.4718 99.0005 23.5696C99.0919 23.6676 99.2542 23.7165 99.478 23.7111H100.483C100.707 23.7165 100.859 23.6676 100.946 23.5696C101.027 23.4718 101.067 23.2976 101.062 23.0583V14.9958H107.613C109.041 14.9903 110.269 14.702 111.296 14.1308C112.321 13.565 113.109 12.7436 113.662 11.6664C114.215 10.5947 114.495 9.29984 114.5 7.78203C114.495 6.26419 114.215 4.96396 113.662 3.88677C113.109 2.80961 112.321 1.98271 111.296 1.40604C110.269 0.829378 109.041 0.541027 107.613 0.535583H99.478ZM101.062 12.8088V2.75521H107.431C108.421 2.76065 109.274 2.96194 109.985 3.35906C110.696 3.76167 111.25 4.33832 111.63 5.08363C112.017 5.83442 112.209 6.73206 112.214 7.78203C112.209 8.832 112.017 9.72964 111.63 10.4804C111.25 11.2257 110.696 11.8024 109.985 12.1995C109.274 12.6021 108.421 12.8034 107.431 12.8088H101.062ZM132.6 0.535583C132.462 0.535583 132.34 0.562804 132.234 0.611762C132.127 0.666164 132.036 0.747755 131.96 0.862007L123.184 14.5388C122.468 15.6649 121.828 16.7421 121.254 17.7649C120.686 18.7931 120.183 19.7615 119.741 20.6754H119.65C119.771 19.5493 119.863 18.4014 119.924 17.2263C119.985 16.0566 120.015 14.8652 120.015 13.6575V1.18843C120.02 0.949038 119.979 0.774976 119.898 0.677056C119.812 0.5791 119.659 0.530139 119.436 0.535583H118.431C118.207 0.530139 118.045 0.5791 117.953 0.677056C117.862 0.774976 117.816 0.949038 117.821 1.18843V23.0583C117.816 23.2976 117.862 23.4718 117.953 23.5696C118.045 23.6676 118.207 23.7165 118.431 23.7111H119.436C119.573 23.7111 119.695 23.6785 119.802 23.6186C119.908 23.5533 120 23.4663 120.076 23.3521L129.065 9.3488C129.781 8.17369 130.411 7.10198 130.959 6.13904C131.503 5.17611 131.96 4.32202 132.325 3.57127H132.386C132.249 4.73004 132.153 5.8616 132.087 6.97142C132.021 8.08121 131.99 9.16929 131.99 10.2301V23.0583C131.99 23.2976 132.031 23.4718 132.122 23.5696C132.219 23.6676 132.376 23.7165 132.6 23.7111H133.605C133.828 23.7165 133.991 23.6676 134.082 23.5696C134.174 23.4718 134.22 23.2976 134.214 23.0583V1.18843C134.22 0.949038 134.174 0.774976 134.082 0.677056C133.991 0.5791 133.828 0.530139 133.605 0.535583H132.6ZM138.328 15.975C138.333 17.6887 138.658 19.1576 139.308 20.3762C139.958 21.5948 140.903 22.5306 142.142 23.1834C143.381 23.8308 144.894 24.1627 146.677 24.1681C148.206 24.1681 149.511 23.9559 150.597 23.5261C151.679 23.1018 152.568 22.4653 153.259 21.622C153.954 20.7734 154.482 19.7179 154.843 18.4558C154.904 18.26 154.904 18.0968 154.843 17.9607C154.782 17.8302 154.66 17.7213 154.477 17.6397L153.533 17.2481C153.35 17.1991 153.193 17.21 153.055 17.2753C152.923 17.346 152.817 17.4766 152.74 17.6724C152.461 18.6625 152.07 19.4731 151.567 20.1096C151.065 20.7461 150.415 21.2195 149.617 21.5241C148.82 21.8288 147.84 21.9811 146.677 21.9811C145.362 21.9757 144.255 21.7363 143.34 21.2684C142.431 20.7951 141.741 20.1151 141.268 19.2229C140.791 18.3361 140.557 17.2644 140.552 16.0077V8.23898C140.552 6.97142 140.786 5.89427 141.253 5.00748C141.72 4.12069 142.406 3.44068 143.315 2.97283C144.224 2.50497 145.346 2.26561 146.677 2.26561C147.82 2.26017 148.784 2.41249 149.572 2.7117C150.364 3.0109 151.009 3.47331 151.512 4.09354C152.009 4.71371 152.4 5.50799 152.68 6.47633C152.756 6.65588 152.857 6.77558 152.984 6.84087C153.111 6.90613 153.274 6.91702 153.472 6.86806L154.416 6.50899C154.64 6.43285 154.777 6.32944 154.828 6.20434C154.879 6.07919 154.863 5.89968 154.782 5.66031C154.421 4.40905 153.893 3.36998 153.203 2.54304C152.512 1.71613 151.628 1.10136 150.552 0.693349C149.475 0.279896 148.185 0.0786133 146.677 0.0786133C144.874 0.0840571 143.355 0.410442 142.116 1.06329C140.877 1.71613 139.933 2.65185 139.293 3.87048C138.653 5.08907 138.333 6.55795 138.328 8.27161V15.975ZM156.976 0.535583C156.753 0.530139 156.59 0.5791 156.499 0.677056C156.407 0.774976 156.361 0.949038 156.366 1.18843V2.1024C156.361 2.34176 156.407 2.51041 156.499 2.61377C156.59 2.71169 156.753 2.75521 156.976 2.75521H163.131V23.0583C163.126 23.2976 163.172 23.4718 163.263 23.5696C163.354 23.6676 163.517 23.7165 163.741 23.7111H164.746C164.97 23.7165 165.132 23.6676 165.223 23.5696C165.315 23.4718 165.361 23.2976 165.355 23.0583V2.75521H171.511C171.734 2.75521 171.896 2.71169 171.988 2.61377C172.079 2.51041 172.125 2.34176 172.12 2.1024V1.18843C172.125 0.949038 172.079 0.774976 171.988 0.677056C171.896 0.5791 171.734 0.530139 171.511 0.535583H156.976ZM174.253 15.975C174.258 17.6887 174.583 19.1576 175.228 20.3762C175.873 21.5948 176.817 22.5306 178.061 23.1834C179.306 23.8308 180.829 24.1627 182.632 24.1681C184.425 24.1627 185.938 23.8308 187.182 23.1834C188.422 22.5306 189.366 21.5948 190.011 20.3762C190.651 19.1576 190.976 17.6887 190.981 15.975V8.27161C190.976 6.55795 190.651 5.08907 190.011 3.87048C189.366 2.65185 188.422 1.71613 187.182 1.06329C185.938 0.410442 184.425 0.0840571 182.632 0.0786133C180.829 0.0840571 179.306 0.410442 178.061 1.06329C176.817 1.71613 175.873 2.65185 175.228 3.87048C174.583 5.08907 174.258 6.55795 174.253 8.27161V15.975ZM188.787 15.975C188.787 17.2535 188.549 18.3361 188.081 19.2283C187.609 20.1205 186.918 20.806 186.005 21.2739C185.09 21.7417 183.963 21.9757 182.632 21.9811C181.302 21.9757 180.174 21.7417 179.255 21.2739C178.336 20.806 177.64 20.1205 177.163 19.2283C176.685 18.3361 176.447 17.2535 176.447 15.975V8.27161C176.447 6.9932 176.685 5.9106 177.163 5.01841C177.64 4.12069 178.336 3.44068 179.255 2.97283C180.174 2.50497 181.302 2.26561 182.632 2.26561C183.963 2.26561 185.09 2.50497 186.005 2.97283C186.918 3.44068 187.609 4.12069 188.081 5.01841C188.549 5.9106 188.787 6.9932 188.787 8.27161V15.975ZM195.704 0.535583C195.48 0.530139 195.318 0.5791 195.227 0.677056C195.135 0.774976 195.09 0.949038 195.095 1.18843V23.0583C195.09 23.2976 195.135 23.4718 195.227 23.5696C195.318 23.6676 195.48 23.7165 195.704 23.7111H204.632C205.927 23.7056 207.049 23.4609 207.989 22.9712C208.928 22.4816 209.654 21.7744 210.162 20.8495C210.675 19.9192 210.934 18.7985 210.939 17.4766C210.939 15.9098 210.635 14.6531 210.03 13.701C209.421 12.7544 208.517 12.107 207.313 11.7643V11.699C208.273 11.2583 208.989 10.6001 209.467 9.72419C209.939 8.84833 210.178 7.7657 210.178 6.47633C210.173 5.19788 209.944 4.12069 209.487 3.2394C209.03 2.35809 208.365 1.6835 207.486 1.2265C206.613 0.769531 205.551 0.535583 204.297 0.535583H195.704ZM207.923 6.77013C207.918 8.12472 207.588 9.14206 206.922 9.82756C206.257 10.5076 205.292 10.8503 204.023 10.8503H197.288V2.75521H204.023C205.318 2.75521 206.293 3.08708 206.943 3.75622C207.598 4.42539 207.923 5.43184 207.923 6.77013ZM207.588 20.4143C207.237 20.7734 206.806 21.0454 206.293 21.2249C205.78 21.4044 205.196 21.4915 204.541 21.4915H197.288V12.972H204.541C205.196 12.972 205.78 13.0591 206.293 13.2386C206.806 13.4181 207.237 13.6902 207.588 14.0492C207.938 14.4246 208.197 14.8761 208.37 15.4038C208.542 15.9315 208.624 16.5463 208.624 17.2481C208.624 17.9498 208.542 18.5646 208.37 19.0869C208.197 19.6146 207.938 20.0553 207.588 20.4143Z" fill="#140A32"/>
<path id="Vector_3" d="M6.38775 31.0537H4.96191V28.6709C4.96403 28.5532 4.94297 28.4734 4.90091 28.4292C4.85674 28.3872 4.77687 28.3662 4.65912 28.3683H4.12914C4.01139 28.3662 3.93145 28.3872 3.88727 28.4292C3.84526 28.4734 3.82423 28.5532 3.82631 28.6709V34.5712C3.82631 34.7729 3.92724 34.8738 4.12914 34.8738H4.65912C4.77687 34.8759 4.85674 34.8549 4.90091 34.8128C4.94297 34.7687 4.96403 34.6889 4.96191 34.5712V32.1001H6.38775V32.6674C6.38984 33.1697 6.49921 33.5983 6.71372 33.9555C6.93032 34.3128 7.24367 34.5859 7.65587 34.775C8.06591 34.9641 8.56434 35.0608 9.15105 35.0629C9.74199 35.0608 10.2425 34.9641 10.6568 34.775C11.069 34.5859 11.3844 34.3128 11.601 33.9555C11.8155 33.5983 11.9249 33.1697 11.927 32.6674V30.5746C11.9249 30.0724 11.8155 29.6438 11.601 29.2865C11.3844 28.9293 11.069 28.6562 10.6568 28.4671C10.2425 28.2758 9.74199 28.1813 9.15105 28.1792C8.56434 28.1813 8.06591 28.2758 7.65587 28.4671C7.24367 28.6562 6.93032 28.9293 6.71372 29.2865C6.49921 29.6438 6.38984 30.0724 6.38775 30.5746V31.0537ZM10.7914 32.6674C10.7914 32.9532 10.7241 33.1991 10.5937 33.405C10.4633 33.6089 10.2762 33.7664 10.0301 33.8757C9.78617 33.9849 9.49384 34.0417 9.15105 34.0417C8.81038 34.0417 8.51808 33.9849 8.27414 33.8757C8.03227 33.7664 7.8472 33.6089 7.71895 33.405C7.58855 33.1991 7.52547 32.9532 7.52335 32.6674V30.5746C7.52547 30.2847 7.58855 30.0367 7.71895 29.8307C7.8472 29.627 8.03227 29.4715 8.27414 29.3622C8.51808 29.255 8.81038 29.2004 9.15105 29.2004C9.67679 29.2025 10.0827 29.3223 10.3645 29.5618C10.6463 29.7992 10.7893 30.1376 10.7914 30.5746V32.6674ZM13.7692 28.5448C13.6367 28.5973 13.5337 28.652 13.4622 28.7108C13.3907 28.7696 13.3423 28.8411 13.315 28.9293C13.2876 29.0155 13.275 29.1268 13.2771 29.2634V37.3448C13.275 37.4522 13.2982 37.5278 13.3423 37.576C13.3865 37.6243 13.4622 37.6473 13.5673 37.6473H14.0973C14.215 37.6495 14.2949 37.6287 14.3391 37.5866C14.3812 37.5424 14.4022 37.4624 14.4001 37.3448V34.7225C14.7282 34.836 15.0289 34.92 15.3002 34.9767C15.5735 35.0335 15.8196 35.0629 16.0404 35.0629C17.8322 35.0629 18.728 34.2056 18.728 32.491V30.7133C18.728 29.8686 18.5072 29.234 18.0677 28.8116C17.6261 28.3893 16.9678 28.1792 16.0909 28.1792C15.6303 28.1792 15.2077 28.2107 14.8207 28.2716C14.4359 28.3347 14.0846 28.425 13.7692 28.5448ZM17.5924 32.4531C17.5924 32.9763 17.4578 33.3693 17.1844 33.634C16.9111 33.8967 16.501 34.0291 15.9521 34.0291C15.7502 34.0291 15.521 34.0017 15.2623 33.945C15.0016 33.8904 14.7156 33.8084 14.4001 33.7013V29.6669C14.398 29.5933 14.4085 29.5387 14.4338 29.5009C14.4569 29.4631 14.5094 29.4316 14.5894 29.4021C14.8039 29.3391 15.0226 29.2907 15.2434 29.2592C15.4663 29.2277 15.6934 29.213 15.9269 29.213C16.482 29.213 16.8984 29.3412 17.1761 29.5996C17.4536 29.856 17.5924 30.2405 17.5924 30.7511V32.4531ZM20.3936 28.3683C20.2759 28.3662 20.1959 28.3872 20.1518 28.4292C20.1097 28.4734 20.0887 28.5532 20.0908 28.6709V34.5712C20.0908 34.7729 20.1917 34.8738 20.3936 34.8738H20.9236C21.0497 34.8738 21.1507 34.8234 21.2264 34.7225L23.9392 31.0285C24.0843 30.8205 24.2168 30.6208 24.3346 30.4296C24.4544 30.2384 24.5575 30.0514 24.6458 29.8686H24.6837C24.6143 30.1964 24.5638 30.499 24.5302 30.7784C24.4986 31.0558 24.4818 31.3122 24.4818 31.5454V34.5712C24.4797 34.6889 24.5007 34.7687 24.5428 34.8128C24.587 34.8549 24.6669 34.8759 24.7846 34.8738H25.3146C25.4323 34.8759 25.5123 34.8549 25.5564 34.8128C25.5985 34.7687 25.6195 34.6889 25.6174 34.5712V28.6709C25.6195 28.5532 25.5985 28.4734 25.5564 28.4292C25.5123 28.3872 25.4323 28.3662 25.3146 28.3683H24.7846C24.7215 28.3683 24.6647 28.3809 24.6164 28.4061C24.568 28.4314 24.526 28.4692 24.4944 28.5196L21.7437 32.2514C21.4661 32.617 21.239 32.9953 21.0623 33.3861H21.0245C21.0939 33.115 21.1444 32.844 21.178 32.5708C21.2096 32.2998 21.2264 32.0245 21.2264 31.7471V28.6709C21.2285 28.5532 21.2074 28.4734 21.1654 28.4292C21.1212 28.3872 21.0413 28.3662 20.9236 28.3683H20.3936ZM32.8727 33.8274V28.6709C32.8727 28.5532 32.8496 28.4734 32.8012 28.4292C32.7528 28.3872 32.6771 28.3662 32.5699 28.3683H28.406C28.2987 28.3662 28.223 28.3872 28.1746 28.4292C28.1262 28.4734 28.1032 28.5532 28.1032 28.6709V30.5746C28.1032 31.0978 28.0842 31.5454 28.0484 31.9194C28.0106 32.2913 27.9581 32.5918 27.8886 32.8187C27.8129 33.052 27.7246 33.2516 27.6216 33.4176C27.5206 33.5836 27.4028 33.7202 27.2704 33.8274H26.9297C26.8245 33.8252 26.7488 33.8484 26.7047 33.8946C26.6605 33.9429 26.6374 34.0249 26.6394 34.1426V36.3237C26.6374 36.4308 26.6605 36.5065 26.7047 36.5548C26.7488 36.603 26.8245 36.6264 26.9297 36.6264H27.4217C27.529 36.6264 27.6089 36.6008 27.6594 36.5504C27.712 36.5002 27.7372 36.4245 27.7372 36.3237V34.8738H32.7213V36.3237C32.7213 36.4308 32.7444 36.5065 32.7928 36.5548C32.8412 36.603 32.9189 36.6264 33.0241 36.6264H33.5162C33.634 36.6264 33.7139 36.603 33.7581 36.5548C33.8001 36.5065 33.8212 36.4308 33.819 36.3237V34.1426C33.8212 34.0249 33.8001 33.9429 33.7581 33.8946C33.7139 33.8484 33.634 33.8252 33.5162 33.8274H32.8727ZM29.2009 29.4147H31.7371V33.8274H28.57C28.7782 33.5248 28.9359 33.1087 29.041 32.5772C29.1483 32.0476 29.2009 31.4004 29.2009 30.6377V29.4147ZM35.1186 28.3683C35.0009 28.3662 34.921 28.3872 34.8768 28.4292C34.8348 28.4734 34.8138 28.5532 34.8159 28.6709V34.5712C34.8159 34.7729 34.9168 34.8738 35.1186 34.8738H35.6486C35.7748 34.8738 35.8758 34.8234 35.9515 34.7225L38.6642 31.0285C38.8093 30.8205 38.9417 30.6208 39.0598 30.4296C39.1794 30.2384 39.2825 30.0514 39.371 29.8686H39.4087C39.3392 30.1964 39.2888 30.499 39.2551 30.7784C39.2237 31.0558 39.2068 31.3122 39.2068 31.5454V34.5712C39.2047 34.6889 39.2259 34.7687 39.2679 34.8128C39.3122 34.8549 39.3919 34.8759 39.5096 34.8738H40.0395C40.1573 34.8759 40.2373 34.8549 40.2816 34.8128C40.3236 34.7687 40.3445 34.6889 40.3423 34.5712V28.6709C40.3445 28.5532 40.3236 28.4734 40.2816 28.4292C40.2373 28.3872 40.1573 28.3662 40.0395 28.3683H39.5096C39.4467 28.3683 39.3897 28.3809 39.3414 28.4061C39.2931 28.4314 39.2511 28.4692 39.2193 28.5196L36.4688 32.2514C36.1912 32.617 35.9641 32.9953 35.7874 33.3861H35.7496C35.819 33.115 35.8694 32.844 35.9031 32.5708C35.9346 32.2998 35.9515 32.0245 35.9515 31.7471V28.6709C35.9535 28.5532 35.9325 28.4734 35.8905 28.4292C35.8463 28.3872 35.7664 28.3662 35.6486 28.3683H35.1186ZM41.5286 30.1964C41.5264 30.997 41.7326 31.5958 42.151 31.9951C42.5697 32.3922 43.2151 32.5918 44.0898 32.5918C44.8344 32.5918 45.3642 32.5288 45.6798 32.4027V34.5712C45.6798 34.6889 45.7029 34.7687 45.7515 34.8128C45.7998 34.8549 45.8755 34.8759 45.9826 34.8738H46.5125C46.62 34.8759 46.6957 34.8549 46.744 34.8128C46.7922 34.7687 46.8156 34.6889 46.8156 34.5712V28.6709C46.8156 28.5532 46.7922 28.4734 46.744 28.4292C46.6957 28.3872 46.62 28.3662 46.5125 28.3683H45.9826C45.8755 28.3662 45.7998 28.3872 45.7515 28.4292C45.7029 28.4734 45.6798 28.5532 45.6798 28.6709V31.3437C45.3013 31.495 44.8219 31.5706 44.2412 31.5706C43.1815 31.5706 42.6516 31.1041 42.6516 30.1712V28.6709C42.6538 28.5637 42.6304 28.4881 42.5865 28.4398C42.5423 28.3914 42.4666 28.3683 42.3612 28.3683H41.8314C41.7136 28.3662 41.6335 28.3872 41.5896 28.4292C41.5476 28.4734 41.5264 28.5532 41.5286 28.6709V30.1964ZM48.153 32.4405C48.153 32.9805 48.2561 33.447 48.462 33.8378C48.6682 34.2287 48.9772 34.5292 49.3915 34.7414C49.808 34.9536 50.3273 35.0608 50.9541 35.0629C51.6101 35.0629 52.1656 34.9557 52.6176 34.7393C53.0718 34.525 53.421 34.1993 53.6671 33.7643C53.8057 33.55 53.768 33.3861 53.5534 33.2726L53.2126 33.0961C53.1076 33.0268 53.0173 33.0015 52.9434 33.0205C52.8677 33.0394 52.7942 33.1024 52.7207 33.2096C52.5503 33.4996 52.317 33.7181 52.0245 33.863C51.7301 34.0081 51.3768 34.0795 50.9669 34.0795C50.4158 34.0774 49.9971 33.9471 49.7093 33.6866C49.423 33.4281 49.2782 33.0541 49.276 32.5666V31.9614H53.3896C53.5472 31.9614 53.6649 31.9236 53.7406 31.8501C53.8185 31.7744 53.8562 31.6652 53.8562 31.5202V30.7889C53.8562 30.2636 53.7468 29.8076 53.5325 29.4168C53.3157 29.0281 52.9961 28.7234 52.5734 28.5091C52.1506 28.2927 51.627 28.1834 51.0046 28.1792C50.3862 28.1813 49.8647 28.2864 49.4398 28.4965C49.0174 28.7087 48.6975 29.0134 48.481 29.4147C48.2623 29.816 48.153 30.3035 48.153 30.8772V32.4405ZM52.7332 31.0915H49.276V30.7259C49.276 30.3918 49.3433 30.1081 49.4734 29.8707C49.6062 29.6354 49.8018 29.4526 50.0582 29.3286C50.3149 29.2025 50.6301 29.1373 51.0046 29.1373C51.5681 29.1395 51.997 29.2781 52.2896 29.5534C52.584 29.8265 52.7313 30.2174 52.7332 30.7259V31.0915ZM54.9035 32.5162C54.9035 33.0562 55.0066 33.5143 55.2107 33.8946C55.4147 34.2728 55.7193 34.5607 56.1274 34.7603C56.5355 34.9599 57.0442 35.0608 57.6542 35.0629C59.08 35.0629 60.0011 34.483 60.4176 33.3231C60.4553 33.2222 60.4553 33.136 60.4195 33.0667C60.3818 32.9953 60.3101 32.9385 60.203 32.8944L59.7612 32.7683C59.6457 32.7221 59.5554 32.7158 59.4943 32.7452C59.4332 32.7767 59.3787 32.8502 59.3323 32.97C59.2124 33.3357 59.0171 33.6109 58.7414 33.7937C58.4682 33.9765 58.1149 34.0669 57.6794 34.0669C57.1411 34.0627 56.7352 33.9324 56.4577 33.6718C56.1801 33.4113 56.0411 33.0436 56.0389 32.5666V30.6629C56.0411 30.188 56.1801 29.8203 56.4577 29.5639C56.7352 29.3075 57.1411 29.1773 57.6794 29.1752C58.1149 29.1752 58.4682 29.2634 58.7414 29.4399C59.0127 29.6164 59.2061 29.8812 59.3199 30.2342C59.3641 30.3477 59.4208 30.4212 59.4921 30.4527C59.5616 30.4864 59.6479 30.4801 59.7488 30.4359L60.1906 30.2973C60.2977 30.2594 60.3672 30.2048 60.4008 30.1355C60.4323 30.064 60.4301 29.9757 60.3924 29.8686C60.2158 29.3075 59.9064 28.8852 59.4628 28.6036C59.0211 28.32 58.443 28.1792 57.7299 28.1792C57.1031 28.1813 56.5798 28.2821 56.1611 28.4797C55.7427 28.6793 55.4293 28.9672 55.2191 29.3454C55.0088 29.7215 54.9035 30.1775 54.9035 30.7133V32.5162ZM66.0071 32.2766C65.8748 32.0056 65.7234 31.7849 65.5552 31.6126C65.3847 31.4424 65.1997 31.3185 64.9979 31.2428L67.0168 28.7213C67.1115 28.6015 67.143 28.5133 67.1115 28.4544C67.0797 28.3977 66.985 28.3683 66.8274 28.3683H66.348C66.228 28.3662 66.1333 28.3704 66.066 28.3788C65.9969 28.3872 65.9399 28.4082 65.8938 28.4418C65.8495 28.4734 65.8031 28.5259 65.7548 28.5953L63.8748 31.0285H63.7611H62.7646V28.6709C62.7664 28.5532 62.7434 28.4734 62.6973 28.4292C62.6487 28.3872 62.5668 28.3662 62.449 28.3683H61.9444C61.8266 28.3662 61.7444 28.3872 61.6961 28.4292C61.65 28.4734 61.6266 28.5532 61.6288 28.6709V34.5586C61.6266 34.6763 61.65 34.7582 61.6961 34.8065C61.7444 34.8528 61.8266 34.8759 61.9444 34.8738H62.449C62.5668 34.8759 62.6487 34.8528 62.6973 34.8065C62.7434 34.7582 62.7664 34.6763 62.7646 34.5586V32.0749H63.9129C64.1081 32.0749 64.2764 32.0959 64.4175 32.1422C64.5583 32.1884 64.6782 32.2619 64.7792 32.3649C64.8801 32.4657 64.9704 32.6002 65.0483 32.7683L65.919 34.5965C65.9548 34.6742 65.9903 34.7351 66.0283 34.775C66.0642 34.815 66.1147 34.8422 66.1754 34.8549C66.2386 34.8675 66.3249 34.8738 66.4361 34.8738H66.9283C67.0735 34.8738 67.1598 34.8464 67.189 34.7918C67.2187 34.7351 67.1934 34.6447 67.1177 34.5208L66.0071 32.2766ZM68.5055 28.3683C68.3877 28.3662 68.308 28.3872 68.2638 28.4292C68.2217 28.4734 68.2005 28.5532 68.2027 28.6709V34.5712C68.2027 34.7729 68.3036 34.8738 68.5055 34.8738H69.0357C69.1619 34.8738 69.2628 34.8234 69.3385 34.7225L72.0512 31.0285C72.1964 30.8205 72.3287 30.6208 72.4465 30.4296C72.5664 30.2384 72.6695 30.0514 72.7577 29.8686H72.7957C72.7262 30.1964 72.6758 30.499 72.6421 30.7784C72.6107 31.0558 72.5939 31.3122 72.5939 31.5454V34.5712C72.5917 34.6889 72.6129 34.7687 72.6549 34.8128C72.6988 34.8549 72.7789 34.8759 72.8966 34.8738H73.4265C73.5443 34.8759 73.6244 34.8549 73.6686 34.8128C73.7107 34.7687 73.7315 34.6889 73.7293 34.5712V28.6709C73.7315 28.5532 73.7107 28.4734 73.6686 28.4292C73.6244 28.3872 73.5443 28.3662 73.4265 28.3683H72.8966C72.8334 28.3683 72.7767 28.3809 72.7284 28.4061C72.6802 28.4314 72.6381 28.4692 72.6063 28.5196L69.8556 32.2514C69.578 32.617 69.351 32.9953 69.1743 33.3861H69.1367C69.2058 33.115 69.2562 32.844 69.2899 32.5708C69.3217 32.2998 69.3385 32.0245 69.3385 31.7471V28.6709C69.3404 28.5532 69.3195 28.4734 69.2775 28.4292C69.2332 28.3872 69.1535 28.3662 69.0357 28.3683H68.5055ZM75.067 32.4405C75.067 32.9805 75.1701 33.447 75.376 33.8378C75.5822 34.2287 75.8912 34.5292 76.3055 34.7414C76.7221 34.9536 77.2413 35.0608 77.8681 35.0629C78.5242 35.0629 79.0793 34.9557 79.5316 34.7393C79.9858 34.525 80.335 34.1993 80.5808 33.7643C80.7197 33.55 80.6817 33.3861 80.4674 33.2726L80.1266 33.0961C80.0216 33.0268 79.9309 33.0015 79.8574 33.0205C79.7817 33.0394 79.7082 33.1024 79.6347 33.2096C79.4643 33.4996 79.2307 33.7181 78.9385 33.863C78.6441 34.0081 78.2908 34.0795 77.8806 34.0795C77.3298 34.0774 76.9111 33.9471 76.623 33.6866C76.337 33.4281 76.1918 33.0541 76.19 32.5666V31.9614H80.3032C80.4612 31.9614 80.5789 31.9236 80.6546 31.8501C80.7325 31.7744 80.7702 31.6652 80.7702 31.5202V30.7889C80.7702 30.2636 80.6609 29.8076 80.4462 29.4168C80.2297 29.0281 79.9101 28.7234 79.4874 28.5091C79.0646 28.2927 78.541 28.1834 77.9186 28.1792C77.3002 28.1813 76.7787 28.2864 76.3538 28.4965C75.9311 28.7087 75.6115 29.0134 75.395 29.4147C75.1763 29.816 75.067 30.3035 75.067 30.8772V32.4405ZM79.6472 31.0915H76.19V30.7259C76.19 30.3918 76.2573 30.1081 76.3875 29.8707C76.5202 29.6354 76.7155 29.4526 76.9722 29.3286C77.2289 29.2025 77.5441 29.1373 77.9186 29.1373C78.4821 29.1395 78.9111 29.2781 79.2036 29.5534C79.498 29.8265 79.645 30.2174 79.6472 30.7259V31.0915ZM89.2874 32.2766C89.1546 32.0056 89.0032 31.7849 88.835 31.6126C88.665 31.4424 88.4796 31.3185 88.2777 31.2428L90.2966 28.7213C90.3913 28.6015 90.4228 28.5133 90.3914 28.4544C90.3599 28.3977 90.2652 28.3683 90.1076 28.3683H89.6278C89.5082 28.3662 89.4135 28.3704 89.3462 28.3788C89.2767 28.3872 89.2201 28.4082 89.1736 28.4418C89.1294 28.4734 89.0833 28.5259 89.035 28.5953L87.1547 31.0285H87.0413H86.0445V28.6709C86.0467 28.5532 86.0233 28.4734 85.9772 28.4292C85.9289 28.3872 85.8466 28.3662 85.7289 28.3683H85.2242C85.1065 28.3662 85.0246 28.3872 84.9763 28.4292C84.9299 28.4734 84.9068 28.5532 84.909 28.6709V34.5586C84.9068 34.6763 84.9299 34.7582 84.9763 34.8065C85.0246 34.8528 85.1065 34.8759 85.2242 34.8738H85.7289C85.8466 34.8759 85.9289 34.8528 85.9772 34.8065C86.0233 34.7582 86.0467 34.6763 86.0445 34.5586V32.0749H87.1927C87.3884 32.0749 87.5566 32.0959 87.6974 32.1422C87.8381 32.1884 87.9581 32.2619 88.059 32.3649C88.1599 32.4657 88.2506 32.6002 88.3282 32.7683L89.1989 34.5965C89.2347 34.6742 89.2705 34.7351 89.3082 34.775C89.344 34.815 89.3945 34.8422 89.4556 34.8549C89.5185 34.8675 89.6048 34.8738 89.7163 34.8738H90.2085C90.3533 34.8738 90.4396 34.8464 90.4692 34.7918C90.4985 34.7351 90.4733 34.6447 90.3976 34.5208L89.2874 32.2766ZM91.2811 32.6548C91.2829 33.1571 91.3966 33.5878 91.6215 33.945C91.8464 34.3044 92.1682 34.5796 92.5891 34.7729C93.0097 34.9641 93.5165 35.0608 94.1074 35.0629C94.7108 35.0608 95.2239 34.9641 95.6444 34.7729C96.0671 34.5796 96.3889 34.3044 96.612 33.945C96.8329 33.5878 96.9441 33.1571 96.9463 32.6548V30.5998C96.9441 30.0934 96.8329 29.6606 96.612 29.2992C96.3889 28.9398 96.0671 28.6625 95.6444 28.4713C95.2239 28.2779 94.7108 28.1813 94.1074 28.1792C93.5165 28.1813 93.0097 28.2779 92.5891 28.4713C92.1682 28.6625 91.8464 28.9398 91.6215 29.2992C91.3966 29.6606 91.2829 30.0934 91.2811 30.5998V32.6548ZM95.8232 32.6548C95.8232 32.9448 95.7538 33.1949 95.6174 33.4008C95.4806 33.6067 95.285 33.7664 95.0282 33.8757C94.7741 33.9849 94.4669 34.0417 94.1074 34.0417C93.752 34.0417 93.4492 33.9849 93.1947 33.8757C92.9402 33.7664 92.7467 33.6067 92.61 33.4008C92.4732 33.1949 92.4059 32.9448 92.4037 32.6548V30.5872C92.4059 30.2951 92.4732 30.0472 92.61 29.8413C92.7467 29.6332 92.9402 29.4757 93.1947 29.3664C93.4492 29.2571 93.752 29.2004 94.1074 29.2004C94.4669 29.2004 94.7741 29.2571 95.0282 29.3664C95.285 29.4757 95.4806 29.6332 95.6174 29.8413C95.7538 30.0472 95.8232 30.2951 95.8232 30.5872V32.6548ZM102.94 28.3683C102.833 28.3662 102.757 28.3872 102.708 28.4292C102.66 28.4734 102.637 28.5532 102.637 28.6709V31.0285H99.4446V28.6709C99.4468 28.5532 99.4256 28.4734 99.3835 28.4292C99.3397 28.3872 99.2596 28.3662 99.1418 28.3683H98.6119C98.4942 28.3662 98.4141 28.3872 98.3699 28.4292C98.3282 28.4734 98.307 28.5532 98.3092 28.6709V34.5712C98.3092 34.7729 98.4101 34.8738 98.6119 34.8738H99.1418C99.2596 34.8759 99.3397 34.8549 99.3835 34.8128C99.4256 34.7687 99.4468 34.6889 99.4446 34.5712V32.0749H102.637V34.5712C102.637 34.6889 102.66 34.7687 102.708 34.8128C102.757 34.8549 102.833 34.8759 102.94 34.8738H103.47C103.577 34.8759 103.653 34.8549 103.701 34.8128C103.749 34.7687 103.772 34.6889 103.772 34.5712V28.6709C103.772 28.5532 103.749 28.4734 103.701 28.4292C103.653 28.3872 103.577 28.3662 103.47 28.3683H102.94ZM105.123 32.5162C105.123 33.0562 105.226 33.5143 105.43 33.8946C105.634 34.2728 105.939 34.5607 106.347 34.7603C106.755 34.9599 107.264 35.0608 107.873 35.0629C109.299 35.0629 110.22 34.483 110.637 33.3231C110.674 33.2222 110.674 33.136 110.639 33.0667C110.601 32.9953 110.53 32.9385 110.422 32.8944L109.981 32.7683C109.865 32.7221 109.774 32.7158 109.713 32.7452C109.653 32.7767 109.598 32.8502 109.552 32.97C109.432 33.3357 109.236 33.6109 108.961 33.7937C108.687 33.9765 108.334 34.0669 107.899 34.0669C107.36 34.0627 106.954 33.9324 106.677 33.6718C106.399 33.4113 106.26 33.0436 106.258 32.5666V30.6629C106.26 30.188 106.399 29.8203 106.677 29.5639C106.954 29.3075 107.36 29.1773 107.899 29.1752C108.334 29.1752 108.687 29.2634 108.961 29.4399C109.232 29.6164 109.425 29.8812 109.539 30.2342C109.583 30.3477 109.64 30.4212 109.712 30.4527C109.781 30.4864 109.867 30.4801 109.968 30.4359L110.41 30.2973C110.517 30.2594 110.586 30.2048 110.62 30.1355C110.651 30.064 110.649 29.9757 110.612 29.8686C110.435 29.3075 110.126 28.8852 109.682 28.6036C109.24 28.32 108.662 28.1792 107.949 28.1792C107.323 28.1813 106.799 28.2821 106.38 28.4797C105.962 28.6793 105.648 28.9672 105.438 29.3454C105.228 29.7215 105.123 30.1775 105.123 30.7133V32.5162ZM116.466 28.3683C116.359 28.3662 116.283 28.3872 116.235 28.4292C116.186 28.4734 116.163 28.5532 116.163 28.6709V33.5248C115.88 33.613 115.602 33.6802 115.332 33.7244C115.062 33.7685 114.801 33.7895 114.548 33.7895C114.018 33.7895 113.621 33.6634 113.356 33.4134C113.091 33.1613 112.958 32.7872 112.958 32.2892V28.6709C112.961 28.5637 112.937 28.4881 112.893 28.4398C112.849 28.3914 112.773 28.3683 112.668 28.3683H112.138C112.021 28.3662 111.941 28.3872 111.897 28.4292C111.854 28.4734 111.833 28.5532 111.835 28.6709V32.3271C111.835 33.1592 112.05 33.7832 112.477 34.1993C112.906 34.6153 113.545 34.8234 114.397 34.8234C114.662 34.8234 114.942 34.8002 115.238 34.7561C115.533 34.712 115.842 34.6468 116.163 34.5586V35.2394C116.163 35.7941 116.029 36.2102 115.757 36.4876C115.488 36.7649 115.085 36.9037 114.548 36.9037C114.189 36.9037 113.88 36.8343 113.619 36.6936C113.36 36.5548 113.148 36.3426 112.984 36.0589C112.935 35.9916 112.887 35.9433 112.843 35.9139C112.796 35.8845 112.746 35.874 112.691 35.8803C112.637 35.8845 112.569 35.9076 112.492 35.9454L112.125 36.1471C112.018 36.2039 111.953 36.2711 111.93 36.3489C111.907 36.4266 111.93 36.5191 111.999 36.6264C112.245 37.055 112.58 37.3766 113.007 37.5907C113.432 37.8051 113.949 37.9122 114.561 37.9122C116.378 37.9122 117.286 37.0046 117.286 35.189V28.6709C117.289 28.5532 117.267 28.4734 117.225 28.4292C117.181 28.3872 117.101 28.3662 116.984 28.3683H116.466ZM119.81 28.3683C119.692 28.3662 119.612 28.3872 119.568 28.4292C119.526 28.4734 119.505 28.5532 119.507 28.6709V30.6377C119.507 31.2933 119.476 31.8417 119.41 32.2829C119.343 32.7242 119.242 33.0583 119.103 33.2852C119.013 33.4344 118.931 33.55 118.855 33.634C118.779 33.7181 118.699 33.7895 118.616 33.8442C118.532 33.8988 118.428 33.9555 118.308 34.0165C118.239 34.0606 118.195 34.111 118.176 34.1699C118.157 34.2266 118.163 34.2938 118.195 34.3695L118.46 34.8738C118.504 34.9557 118.555 35.0083 118.616 35.0335C118.674 35.0587 118.744 35.0566 118.826 35.0251C118.996 34.9431 119.15 34.857 119.286 34.7666C119.421 34.6742 119.549 34.5628 119.669 34.4304C119.791 34.298 119.913 34.132 120.037 33.9282C120.226 33.6256 120.367 33.2033 120.462 32.6654C120.557 32.1274 120.605 31.4761 120.605 30.7133V29.4147H123.04V34.5712C123.038 34.6889 123.059 34.7687 123.101 34.8128C123.145 34.8549 123.225 34.8759 123.343 34.8738H123.86C123.967 34.8759 124.043 34.8549 124.092 34.8128C124.14 34.7687 124.163 34.6889 124.163 34.5712V28.6709C124.163 28.5532 124.14 28.4734 124.092 28.4292C124.043 28.3872 123.967 28.3662 123.86 28.3683H119.81ZM126.775 30.3351V28.6709C126.777 28.5532 126.756 28.4734 126.714 28.4292C126.67 28.3872 126.59 28.3662 126.472 28.3683H125.942C125.824 28.3662 125.745 28.3872 125.7 28.4292C125.658 28.4734 125.637 28.5532 125.639 28.6709V34.5712C125.637 34.6889 125.658 34.7687 125.7 34.8128C125.745 34.8549 125.824 34.8759 125.942 34.8738H128.731C129.216 34.8717 129.633 34.7792 129.978 34.5985C130.323 34.4178 130.588 34.1573 130.773 33.8168C130.958 33.4765 131.05 33.0688 131.053 32.5918C131.05 32.119 130.958 31.7156 130.773 31.3794C130.588 31.0432 130.323 30.7847 129.978 30.6062C129.633 30.4275 129.216 30.3372 128.731 30.3351H126.775ZM126.775 33.8652V31.3563H128.592C128.994 31.3605 129.305 31.4697 129.528 31.6862C129.751 31.9026 129.864 32.2031 129.866 32.5918C129.864 32.9932 129.751 33.3042 129.528 33.5269C129.305 33.7496 128.994 33.861 128.592 33.8652H126.775ZM131.873 28.3683C131.755 28.3662 131.675 28.3872 131.631 28.4292C131.589 28.4734 131.568 28.5532 131.57 28.6709V29.1121C131.568 29.2193 131.589 29.2949 131.631 29.3433C131.675 29.3916 131.755 29.4147 131.873 29.4147H133.715V34.5712C133.713 34.6889 133.734 34.7687 133.776 34.8128C133.82 34.8549 133.9 34.8759 134.018 34.8738H134.548C134.653 34.8759 134.728 34.8549 134.773 34.8128C134.817 34.7687 134.84 34.6889 134.838 34.5712V29.4147H136.68C136.787 29.4147 136.863 29.3916 136.912 29.3433C136.96 29.2949 136.983 29.2193 136.983 29.1121V28.6709C136.983 28.5532 136.96 28.4734 136.912 28.4292C136.863 28.3872 136.787 28.3662 136.68 28.3683H131.873ZM137.816 29.503C137.765 29.6038 137.753 29.69 137.78 29.7593C137.805 29.8307 137.873 29.8875 137.98 29.9316L138.371 30.1081C138.449 30.1376 138.51 30.1522 138.552 30.1522C138.594 30.1522 138.632 30.1376 138.665 30.106C138.699 30.0724 138.739 30.0241 138.787 29.9568C138.945 29.6984 139.153 29.5051 139.414 29.379C139.672 29.2508 139.986 29.1878 140.352 29.1878C140.72 29.1878 141.014 29.2466 141.235 29.3601C141.456 29.4757 141.614 29.6438 141.71 29.8665C141.807 30.0913 141.856 30.3645 141.853 30.6881V31.1672C141.601 31.1356 141.355 31.1125 141.115 31.0999C140.876 31.0852 140.642 31.0789 140.415 31.0789C139.74 31.0768 139.197 31.1398 138.783 31.268C138.369 31.3962 138.068 31.6042 137.879 31.8942C137.692 32.1863 137.599 32.5729 137.601 33.0583C137.601 33.405 137.652 33.7055 137.75 33.9576C137.851 34.2098 137.999 34.4136 138.194 34.5712C138.39 34.7351 138.669 34.857 139.033 34.9389C139.397 35.0209 139.841 35.0629 140.364 35.0629C140.838 35.0629 141.254 35.0356 141.616 34.9788C141.975 34.9242 142.282 34.8422 142.535 34.7351C142.652 34.6868 142.743 34.6342 142.81 34.5796C142.876 34.525 142.922 34.4535 142.949 34.3653C142.976 34.277 142.989 34.1615 142.989 34.0165V30.7259C142.991 30.1985 142.907 29.7447 142.735 29.3643C142.562 28.9861 142.285 28.694 141.902 28.4881C141.517 28.2842 141.01 28.1813 140.377 28.1792C139.753 28.1792 139.227 28.2884 138.798 28.5091C138.371 28.7297 138.043 29.0617 137.816 29.503ZM141.853 33.6887C141.853 33.758 141.839 33.8147 141.807 33.861C141.776 33.9051 141.727 33.9408 141.664 33.9661C141.374 34.0669 140.907 34.1173 140.263 34.1173C139.874 34.1173 139.569 34.0795 139.347 34.0017C139.124 33.9261 138.964 33.8084 138.871 33.653C138.779 33.4954 138.734 33.2978 138.737 33.0583C138.734 32.8103 138.783 32.6086 138.882 32.4531C138.981 32.2976 139.143 32.1821 139.37 32.1085C139.599 32.035 139.904 31.9993 140.289 31.9993C140.472 31.9993 140.695 32.0077 140.957 32.0266C141.22 32.0434 141.519 32.0686 141.853 32.1001V33.6887ZM149.79 33.8274V28.6709C149.79 28.5532 149.767 28.4734 149.719 28.4292C149.67 28.3872 149.595 28.3662 149.487 28.3683H148.957C148.85 28.3662 148.774 28.3872 148.726 28.4292C148.677 28.4734 148.654 28.5532 148.654 28.6709V33.8274H145.588V28.6709C145.59 28.5532 145.57 28.4734 145.527 28.4292C145.483 28.3872 145.403 28.3662 145.285 28.3683H144.755C144.554 28.3683 144.453 28.4692 144.453 28.6709V34.5712C144.451 34.6889 144.472 34.7687 144.514 34.8128C144.558 34.8549 144.638 34.8759 144.755 34.8738H149.638V36.3237C149.638 36.4308 149.662 36.5065 149.71 36.5548C149.758 36.603 149.836 36.6264 149.941 36.6264H150.433C150.551 36.6264 150.631 36.603 150.676 36.5548C150.718 36.5065 150.738 36.4308 150.736 36.3237V34.1426C150.738 34.0249 150.718 33.9429 150.676 33.8946C150.631 33.8484 150.551 33.8252 150.433 33.8274H149.79Z" fill="#140A32"/>
<path id="Vector_4" d="M152.035 28.3686C151.918 28.3665 151.838 28.3875 151.794 28.4296C151.752 28.4737 151.73 28.5535 151.733 28.6712V34.5715C151.733 34.7732 151.834 34.8741 152.035 34.8741H152.565C152.691 34.8741 152.792 34.8237 152.868 34.7228L155.581 31.0288C155.726 30.8208 155.859 30.6211 155.976 30.43C156.096 30.2388 156.199 30.0517 156.288 29.8689H156.326C156.256 30.1967 156.206 30.4993 156.172 30.7787C156.141 31.0561 156.124 31.3125 156.124 31.5457V34.5715C156.122 34.6892 156.142 34.7691 156.185 34.8132C156.229 34.8552 156.309 34.8762 156.427 34.8741H156.956C157.074 34.8762 157.154 34.8552 157.198 34.8132C157.24 34.7691 157.261 34.6892 157.259 34.5715V28.6712C157.261 28.5535 157.24 28.4737 157.198 28.4296C157.154 28.3875 157.074 28.3665 156.956 28.3686H156.427C156.363 28.3686 156.307 28.3812 156.258 28.4065C156.21 28.4317 156.168 28.4695 156.136 28.5199L153.385 32.2517C153.108 32.6173 152.881 32.9956 152.704 33.3864H152.666C152.736 33.1154 152.786 32.8443 152.82 32.5711C152.851 32.3001 152.868 32.0248 152.868 31.7474V28.6712C152.87 28.5535 152.849 28.4737 152.807 28.4296C152.763 28.3875 152.683 28.3665 152.565 28.3686H152.035ZM159.127 28.3686C159.009 28.3665 158.929 28.3875 158.885 28.4296C158.843 28.4737 158.822 28.5535 158.824 28.6712V34.5715C158.824 34.7732 158.925 34.8741 159.127 34.8741H159.657C159.783 34.8741 159.884 34.8237 159.959 34.7228L162.672 31.0288C162.818 30.8208 162.95 30.6211 163.068 30.43C163.188 30.2388 163.29 30.0517 163.379 29.8689H163.417C163.347 30.1967 163.297 30.4993 163.263 30.7787C163.232 31.0561 163.215 31.3125 163.215 31.5457V34.5715C163.213 34.6892 163.234 34.7691 163.276 34.8132C163.32 34.8552 163.4 34.8762 163.518 34.8741H164.048C164.165 34.8762 164.245 34.8552 164.289 34.8132C164.332 34.7691 164.353 34.6892 164.351 34.5715V28.6712C164.353 28.5535 164.332 28.4737 164.289 28.4296C164.245 28.3875 164.165 28.3665 164.048 28.3686H163.518C163.455 28.3686 163.398 28.3812 163.349 28.4065C163.301 28.4317 163.259 28.4695 163.228 28.5199L160.477 32.2517C160.199 32.6173 159.972 32.9956 159.796 33.3864H159.758C159.827 33.1154 159.877 32.8443 159.911 32.5711C159.943 32.3001 159.959 32.0248 159.959 31.7474V28.6712C159.962 28.5535 159.94 28.4737 159.898 28.4296C159.854 28.3875 159.774 28.3665 159.657 28.3686H159.127ZM168.59 32.6552C168.592 33.1574 168.706 33.5881 168.931 33.9454C169.156 34.3047 169.477 34.5799 169.898 34.7732C170.319 34.9645 170.826 35.0611 171.417 35.0632C172.02 35.0611 172.533 34.9645 172.954 34.7732C173.376 34.5799 173.698 34.3047 173.921 33.9454C174.142 33.5881 174.253 33.1574 174.255 32.6552V30.6002C174.253 30.0937 174.142 29.6609 173.921 29.2995C173.698 28.9401 173.376 28.6628 172.954 28.4716C172.533 28.2783 172.02 28.1816 171.417 28.1795C170.826 28.1816 170.319 28.2783 169.898 28.4716C169.477 28.6628 169.156 28.9401 168.931 29.2995C168.706 29.6609 168.592 30.0937 168.59 30.6002V32.6552ZM173.132 32.6552C173.132 32.9452 173.063 33.1952 172.927 33.4011C172.79 33.607 172.594 33.7667 172.337 33.876C172.083 33.9853 171.776 34.042 171.417 34.042C171.061 34.042 170.758 33.9853 170.504 33.876C170.249 33.7667 170.056 33.607 169.919 33.4011C169.782 33.1952 169.715 32.9452 169.713 32.6552V30.5876C169.715 30.2955 169.782 30.0475 169.919 29.8416C170.056 29.6335 170.249 29.476 170.504 29.3667C170.758 29.2574 171.061 29.2007 171.417 29.2007C171.776 29.2007 172.083 29.2574 172.337 29.3667C172.594 29.476 172.79 29.6335 172.927 29.8416C173.063 30.0475 173.132 30.2955 173.132 30.5876V32.6552ZM180.249 28.3686C180.142 28.3665 180.066 28.3875 180.018 28.4296C179.969 28.4737 179.946 28.5535 179.946 28.6712V31.0288H176.754V28.6712C176.756 28.5535 176.735 28.4737 176.693 28.4296C176.649 28.3875 176.569 28.3665 176.451 28.3686H175.921C175.803 28.3665 175.723 28.3875 175.679 28.4296C175.637 28.4737 175.616 28.5535 175.618 28.6712V34.5715C175.618 34.7732 175.719 34.8741 175.921 34.8741H176.451C176.569 34.8762 176.649 34.8552 176.693 34.8132C176.735 34.7691 176.756 34.6892 176.754 34.5715V32.0752H179.946V34.5715C179.946 34.6892 179.969 34.7691 180.018 34.8132C180.066 34.8552 180.142 34.8762 180.249 34.8741H180.779C180.886 34.8762 180.962 34.8552 181.01 34.8132C181.059 34.7691 181.082 34.6892 181.082 34.5715V28.6712C181.082 28.5535 181.059 28.4737 181.01 28.4296C180.962 28.3875 180.886 28.3665 180.779 28.3686H180.249ZM183.631 28.3686C183.513 28.3665 183.433 28.3875 183.389 28.4296C183.347 28.4737 183.326 28.5535 183.328 28.6712V30.638C183.328 31.2936 183.296 31.842 183.231 32.2833C183.164 32.7245 183.063 33.0586 182.924 33.2856C182.834 33.4347 182.751 33.5503 182.676 33.6344C182.6 33.7184 182.52 33.7899 182.436 33.8445C182.352 33.8991 182.249 33.9559 182.129 34.0168C182.06 34.0609 182.016 34.1114 181.997 34.1702C181.978 34.2269 181.984 34.2942 182.016 34.3698L182.28 34.8741C182.325 34.9561 182.375 35.0086 182.436 35.0338C182.495 35.059 182.565 35.0569 182.646 35.0254C182.817 34.9435 182.97 34.8573 183.107 34.7669C183.241 34.6745 183.37 34.5631 183.49 34.4307C183.611 34.2984 183.734 34.1324 183.858 33.9285C184.047 33.6259 184.188 33.2036 184.283 32.6657C184.377 32.1278 184.425 31.4764 184.425 30.7136V29.415H186.861V34.5715C186.859 34.6892 186.88 34.7691 186.922 34.8132C186.966 34.8552 187.046 34.8762 187.164 34.8741H187.681C187.788 34.8762 187.864 34.8552 187.912 34.8132C187.961 34.7691 187.984 34.6892 187.984 34.5715V28.6712C187.984 28.5535 187.961 28.4737 187.912 28.4296C187.864 28.3875 187.788 28.3665 187.681 28.3686H183.631ZM189.334 29.5033C189.283 29.6041 189.271 29.6903 189.298 29.7596C189.323 29.8311 189.391 29.8878 189.498 29.9319L189.889 30.1085C189.967 30.1379 190.028 30.1526 190.07 30.1526C190.112 30.1526 190.15 30.1379 190.184 30.1063C190.217 30.0727 190.257 30.0244 190.305 29.9572C190.463 29.6987 190.671 29.5054 190.932 29.3793C191.191 29.2512 191.504 29.1881 191.87 29.1881C192.238 29.1881 192.532 29.2469 192.753 29.3604C192.974 29.476 193.132 29.6441 193.229 29.8668C193.325 30.0917 193.374 30.3648 193.372 30.6884V31.1675C193.119 31.136 192.873 31.1129 192.633 31.1003C192.394 31.0855 192.16 31.0792 191.933 31.0792C191.258 31.0771 190.716 31.1402 190.301 31.2684C189.887 31.3966 189.586 31.6045 189.397 31.8945C189.21 32.1866 189.117 32.5732 189.119 33.0586C189.119 33.4053 189.17 33.7058 189.269 33.958C189.37 34.2101 189.517 34.4139 189.713 34.5715C189.908 34.7354 190.188 34.8573 190.551 34.9392C190.915 35.0212 191.359 35.0632 191.883 35.0632C192.356 35.0632 192.772 35.0359 193.134 34.9791C193.494 34.9245 193.801 34.8426 194.053 34.7354C194.171 34.6871 194.261 34.6346 194.329 34.5799C194.394 34.5253 194.44 34.4538 194.467 34.3656C194.495 34.2774 194.507 34.1618 194.507 34.0168V30.7262C194.509 30.1988 194.425 29.7449 194.253 29.3646C194.08 28.9864 193.803 28.6943 193.42 28.4884C193.035 28.2846 192.528 28.1816 191.895 28.1795C191.271 28.1795 190.745 28.2888 190.316 28.5094C189.889 28.73 189.561 29.062 189.334 29.5033ZM193.372 33.689C193.372 33.7583 193.357 33.8151 193.325 33.8613C193.294 33.9054 193.245 33.9411 193.182 33.9664C192.892 34.0672 192.425 34.1176 191.782 34.1176C191.393 34.1176 191.088 34.0798 190.865 34.0021C190.642 33.9264 190.482 33.8087 190.389 33.6533C190.297 33.4957 190.253 33.2982 190.255 33.0586C190.253 32.8107 190.301 32.6089 190.4 32.4535C190.499 32.298 190.661 32.1824 190.888 32.1088C191.117 32.0353 191.422 31.9996 191.807 31.9996C191.99 31.9996 192.213 32.008 192.476 32.0269C192.739 32.0437 193.037 32.0689 193.372 32.1005V33.689ZM200.728 26.1371C200.747 26.074 200.747 26.0194 200.726 25.9753C200.703 25.929 200.659 25.8912 200.589 25.8597L200.147 25.6958C200.021 25.658 199.933 25.6958 199.882 25.8093C199.718 26.364 199.352 26.6414 198.784 26.6414C198.501 26.6414 198.27 26.5721 198.091 26.4334C197.912 26.2947 197.781 26.0866 197.699 25.8093C197.674 25.7525 197.637 25.7168 197.586 25.7021C197.536 25.6874 197.472 25.6895 197.397 25.7085L197.005 25.8597C196.936 25.8786 196.892 25.9122 196.869 25.9606C196.848 26.0089 196.848 26.0677 196.867 26.1371C197.012 26.5847 197.243 26.9187 197.561 27.1415C197.878 27.3621 198.286 27.4735 198.784 27.4735C199.289 27.4735 199.704 27.3621 200.026 27.1415C200.349 26.9187 200.583 26.5847 200.728 26.1371ZM196.274 28.3686C196.156 28.3665 196.076 28.3875 196.032 28.4296C195.99 28.4737 195.969 28.5535 195.971 28.6712V34.5715C195.971 34.7732 196.072 34.8741 196.274 34.8741H196.804C196.93 34.8741 197.031 34.8237 197.106 34.7228L199.819 31.0288C199.965 30.8208 200.097 30.6211 200.215 30.43C200.335 30.2388 200.438 30.0517 200.526 29.8689H200.564C200.494 30.1967 200.444 30.4993 200.41 30.7787C200.379 31.0561 200.362 31.3125 200.362 31.5457V34.5715C200.36 34.6892 200.381 34.7691 200.423 34.8132C200.467 34.8552 200.547 34.8762 200.665 34.8741H201.195C201.312 34.8762 201.393 34.8552 201.436 34.8132C201.478 34.7691 201.5 34.6892 201.497 34.5715V28.6712C201.5 28.5535 201.478 28.4737 201.436 28.4296C201.393 28.3875 201.312 28.3665 201.195 28.3686H200.665C200.602 28.3686 200.545 28.3812 200.497 28.4065C200.448 28.4317 200.406 28.4695 200.374 28.5199L197.624 32.2517C197.346 32.6173 197.119 32.9956 196.943 33.3864H196.904C196.974 33.1154 197.024 32.8443 197.058 32.5711C197.09 32.3001 197.106 32.0248 197.106 31.7474V28.6712C197.109 28.5535 197.088 28.4737 197.046 28.4296C197.001 28.3875 196.921 28.3665 196.804 28.3686H196.274ZM207.693 28.3686C207.586 28.3665 207.51 28.3875 207.461 28.4296C207.413 28.4737 207.39 28.5535 207.39 28.6712V31.0288H204.198V28.6712C204.2 28.5535 204.179 28.4737 204.137 28.4296C204.093 28.3875 204.013 28.3665 203.895 28.3686H203.365C203.247 28.3665 203.167 28.3875 203.123 28.4296C203.081 28.4737 203.06 28.5535 203.062 28.6712V34.5715C203.062 34.7732 203.163 34.8741 203.365 34.8741H203.895C204.013 34.8762 204.093 34.8552 204.137 34.8132C204.179 34.7691 204.2 34.6892 204.198 34.5715V32.0752H207.39V34.5715C207.39 34.6892 207.413 34.7691 207.461 34.8132C207.51 34.8552 207.586 34.8762 207.693 34.8741H208.223C208.33 34.8762 208.406 34.8552 208.454 34.8132C208.503 34.7691 208.526 34.6892 208.526 34.5715V28.6712C208.526 28.5535 208.503 28.4737 208.454 28.4296C208.406 28.3875 208.33 28.3665 208.223 28.3686H207.693Z" fill="#140A32"/>
<path id="Vector_5" d="M6.38775 31.0537H4.96191V28.6709C4.96403 28.5532 4.94297 28.4734 4.90091 28.4292C4.85674 28.3872 4.77687 28.3662 4.65912 28.3683H4.12914C4.01139 28.3662 3.93145 28.3872 3.88727 28.4292C3.84526 28.4734 3.82423 28.5532 3.82631 28.6709V34.5712C3.82631 34.7729 3.92724 34.8738 4.12914 34.8738H4.65912C4.77687 34.8759 4.85674 34.8549 4.90091 34.8128C4.94297 34.7687 4.96403 34.6889 4.96191 34.5712V32.1001H6.38775V32.6674C6.38984 33.1697 6.49921 33.5983 6.71372 33.9555C6.93032 34.3128 7.24367 34.5859 7.65587 34.775C8.06591 34.9641 8.56434 35.0608 9.15105 35.0629C9.74199 35.0608 10.2425 34.9641 10.6568 34.775C11.069 34.5859 11.3844 34.3128 11.601 33.9555C11.8155 33.5983 11.9249 33.1697 11.927 32.6674V30.5746C11.9249 30.0724 11.8155 29.6438 11.601 29.2865C11.3844 28.9293 11.069 28.6562 10.6568 28.4671C10.2425 28.2758 9.74199 28.1813 9.15105 28.1792C8.56434 28.1813 8.06591 28.2758 7.65587 28.4671C7.24367 28.6562 6.93032 28.9293 6.71372 29.2865C6.49921 29.6438 6.38984 30.0724 6.38775 30.5746V31.0537ZM10.7914 32.6674C10.7914 32.9532 10.7241 33.1991 10.5937 33.405C10.4633 33.6089 10.2762 33.7664 10.0301 33.8757C9.78617 33.9849 9.49384 34.0417 9.15105 34.0417C8.81038 34.0417 8.51808 33.9849 8.27414 33.8757C8.03227 33.7664 7.8472 33.6089 7.71895 33.405C7.58855 33.1991 7.52547 32.9532 7.52335 32.6674V30.5746C7.52547 30.2847 7.58855 30.0367 7.71895 29.8307C7.8472 29.627 8.03227 29.4715 8.27414 29.3622C8.51808 29.255 8.81038 29.2004 9.15105 29.2004C9.67679 29.2025 10.0827 29.3223 10.3645 29.5618C10.6463 29.7992 10.7893 30.1376 10.7914 30.5746V32.6674ZM13.7692 28.5448C13.6367 28.5973 13.5337 28.652 13.4622 28.7108C13.3907 28.7696 13.3423 28.8411 13.315 28.9293C13.2876 29.0155 13.275 29.1268 13.2771 29.2634V37.3448C13.275 37.4522 13.2982 37.5278 13.3423 37.576C13.3865 37.6243 13.4622 37.6473 13.5673 37.6473H14.0973C14.215 37.6495 14.2949 37.6287 14.3391 37.5866C14.3812 37.5424 14.4022 37.4624 14.4001 37.3448V34.7225C14.7282 34.836 15.0289 34.92 15.3002 34.9767C15.5735 35.0335 15.8196 35.0629 16.0404 35.0629C17.8322 35.0629 18.728 34.2056 18.728 32.491V30.7133C18.728 29.8686 18.5072 29.234 18.0677 28.8116C17.6261 28.3893 16.9678 28.1792 16.0909 28.1792C15.6303 28.1792 15.2077 28.2107 14.8207 28.2716C14.4359 28.3347 14.0846 28.425 13.7692 28.5448ZM17.5924 32.4531C17.5924 32.9763 17.4578 33.3693 17.1844 33.634C16.9111 33.8967 16.501 34.0291 15.9521 34.0291C15.7502 34.0291 15.521 34.0017 15.2623 33.945C15.0016 33.8904 14.7156 33.8084 14.4001 33.7013V29.6669C14.398 29.5933 14.4085 29.5387 14.4338 29.5009C14.4569 29.4631 14.5094 29.4316 14.5894 29.4021C14.8039 29.3391 15.0226 29.2907 15.2434 29.2592C15.4663 29.2277 15.6934 29.213 15.9269 29.213C16.482 29.213 16.8984 29.3412 17.1761 29.5996C17.4536 29.856 17.5924 30.2405 17.5924 30.7511V32.4531ZM20.3936 28.3683C20.2759 28.3662 20.1959 28.3872 20.1518 28.4292C20.1097 28.4734 20.0887 28.5532 20.0908 28.6709V34.5712C20.0908 34.7729 20.1917 34.8738 20.3936 34.8738H20.9236C21.0497 34.8738 21.1507 34.8234 21.2264 34.7225L23.9392 31.0285C24.0843 30.8205 24.2168 30.6208 24.3346 30.4296C24.4544 30.2384 24.5575 30.0514 24.6458 29.8686H24.6837C24.6143 30.1964 24.5638 30.499 24.5302 30.7784C24.4986 31.0558 24.4818 31.3122 24.4818 31.5454V34.5712C24.4797 34.6889 24.5007 34.7687 24.5428 34.8128C24.587 34.8549 24.6669 34.8759 24.7846 34.8738H25.3146C25.4323 34.8759 25.5123 34.8549 25.5564 34.8128C25.5985 34.7687 25.6195 34.6889 25.6174 34.5712V28.6709C25.6195 28.5532 25.5985 28.4734 25.5564 28.4292C25.5123 28.3872 25.4323 28.3662 25.3146 28.3683H24.7846C24.7215 28.3683 24.6647 28.3809 24.6164 28.4061C24.568 28.4314 24.526 28.4692 24.4944 28.5196L21.7437 32.2514C21.4661 32.617 21.239 32.9953 21.0623 33.3861H21.0245C21.0939 33.115 21.1444 32.844 21.178 32.5708C21.2096 32.2998 21.2264 32.0245 21.2264 31.7471V28.6709C21.2285 28.5532 21.2074 28.4734 21.1654 28.4292C21.1212 28.3872 21.0413 28.3662 20.9236 28.3683H20.3936ZM32.8727 33.8274V28.6709C32.8727 28.5532 32.8496 28.4734 32.8012 28.4292C32.7528 28.3872 32.6771 28.3662 32.5699 28.3683H28.406C28.2987 28.3662 28.223 28.3872 28.1746 28.4292C28.1262 28.4734 28.1032 28.5532 28.1032 28.6709V30.5746C28.1032 31.0978 28.0842 31.5454 28.0484 31.9194C28.0106 32.2913 27.9581 32.5918 27.8886 32.8187C27.8129 33.052 27.7246 33.2516 27.6216 33.4176C27.5206 33.5836 27.4028 33.7202 27.2704 33.8274H26.9297C26.8245 33.8252 26.7488 33.8484 26.7047 33.8946C26.6605 33.9429 26.6374 34.0249 26.6394 34.1426V36.3237C26.6374 36.4308 26.6605 36.5065 26.7047 36.5548C26.7488 36.603 26.8245 36.6264 26.9297 36.6264H27.4217C27.529 36.6264 27.6089 36.6008 27.6594 36.5504C27.712 36.5002 27.7372 36.4245 27.7372 36.3237V34.8738H32.7213V36.3237C32.7213 36.4308 32.7444 36.5065 32.7928 36.5548C32.8412 36.603 32.9189 36.6264 33.0241 36.6264H33.5162C33.634 36.6264 33.7139 36.603 33.7581 36.5548C33.8001 36.5065 33.8212 36.4308 33.819 36.3237V34.1426C33.8212 34.0249 33.8001 33.9429 33.7581 33.8946C33.7139 33.8484 33.634 33.8252 33.5162 33.8274H32.8727ZM29.2009 29.4147H31.7371V33.8274H28.57C28.7782 33.5248 28.9359 33.1087 29.041 32.5772C29.1483 32.0476 29.2009 31.4004 29.2009 30.6377V29.4147ZM35.1186 28.3683C35.0009 28.3662 34.921 28.3872 34.8768 28.4292C34.8348 28.4734 34.8138 28.5532 34.8159 28.6709V34.5712C34.8159 34.7729 34.9168 34.8738 35.1186 34.8738H35.6486C35.7748 34.8738 35.8758 34.8234 35.9515 34.7225L38.6642 31.0285C38.8093 30.8205 38.9417 30.6208 39.0598 30.4296C39.1794 30.2384 39.2825 30.0514 39.371 29.8686H39.4087C39.3392 30.1964 39.2888 30.499 39.2551 30.7784C39.2237 31.0558 39.2068 31.3122 39.2068 31.5454V34.5712C39.2047 34.6889 39.2259 34.7687 39.2679 34.8128C39.3122 34.8549 39.3919 34.8759 39.5096 34.8738H40.0395C40.1573 34.8759 40.2373 34.8549 40.2816 34.8128C40.3236 34.7687 40.3445 34.6889 40.3423 34.5712V28.6709C40.3445 28.5532 40.3236 28.4734 40.2816 28.4292C40.2373 28.3872 40.1573 28.3662 40.0395 28.3683H39.5096C39.4467 28.3683 39.3897 28.3809 39.3414 28.4061C39.2931 28.4314 39.2511 28.4692 39.2193 28.5196L36.4688 32.2514C36.1912 32.617 35.9641 32.9953 35.7874 33.3861H35.7496C35.819 33.115 35.8694 32.844 35.9031 32.5708C35.9346 32.2998 35.9515 32.0245 35.9515 31.7471V28.6709C35.9535 28.5532 35.9325 28.4734 35.8905 28.4292C35.8463 28.3872 35.7664 28.3662 35.6486 28.3683H35.1186ZM41.5286 30.1964C41.5264 30.997 41.7326 31.5958 42.151 31.9951C42.5697 32.3922 43.2151 32.5918 44.0898 32.5918C44.8344 32.5918 45.3642 32.5288 45.6798 32.4027V34.5712C45.6798 34.6889 45.7029 34.7687 45.7515 34.8128C45.7998 34.8549 45.8755 34.8759 45.9826 34.8738H46.5125C46.62 34.8759 46.6957 34.8549 46.744 34.8128C46.7922 34.7687 46.8156 34.6889 46.8156 34.5712V28.6709C46.8156 28.5532 46.7922 28.4734 46.744 28.4292C46.6957 28.3872 46.62 28.3662 46.5125 28.3683H45.9826C45.8755 28.3662 45.7998 28.3872 45.7515 28.4292C45.7029 28.4734 45.6798 28.5532 45.6798 28.6709V31.3437C45.3013 31.495 44.8219 31.5706 44.2412 31.5706C43.1815 31.5706 42.6516 31.1041 42.6516 30.1712V28.6709C42.6538 28.5637 42.6304 28.4881 42.5865 28.4398C42.5423 28.3914 42.4666 28.3683 42.3612 28.3683H41.8314C41.7136 28.3662 41.6335 28.3872 41.5896 28.4292C41.5476 28.4734 41.5264 28.5532 41.5286 28.6709V30.1964ZM48.153 32.4405C48.153 32.9805 48.2561 33.447 48.462 33.8378C48.6682 34.2287 48.9772 34.5292 49.3915 34.7414C49.808 34.9536 50.3273 35.0608 50.9541 35.0629C51.6101 35.0629 52.1656 34.9557 52.6176 34.7393C53.0718 34.525 53.421 34.1993 53.6671 33.7643C53.8057 33.55 53.768 33.3861 53.5534 33.2726L53.2126 33.0961C53.1076 33.0268 53.0173 33.0015 52.9434 33.0205C52.8677 33.0394 52.7942 33.1024 52.7207 33.2096C52.5503 33.4996 52.317 33.7181 52.0245 33.863C51.7301 34.0081 51.3768 34.0795 50.9669 34.0795C50.4158 34.0774 49.9971 33.9471 49.7093 33.6866C49.423 33.4281 49.2782 33.0541 49.276 32.5666V31.9614H53.3896C53.5472 31.9614 53.6649 31.9236 53.7406 31.8501C53.8185 31.7744 53.8562 31.6652 53.8562 31.5202V30.7889C53.8562 30.2636 53.7468 29.8076 53.5325 29.4168C53.3157 29.0281 52.9961 28.7234 52.5734 28.5091C52.1506 28.2927 51.627 28.1834 51.0046 28.1792C50.3862 28.1813 49.8647 28.2864 49.4398 28.4965C49.0174 28.7087 48.6975 29.0134 48.481 29.4147C48.2623 29.816 48.153 30.3035 48.153 30.8772V32.4405ZM52.7332 31.0915H49.276V30.7259C49.276 30.3918 49.3433 30.1081 49.4734 29.8707C49.6062 29.6354 49.8018 29.4526 50.0582 29.3286C50.3149 29.2025 50.6301 29.1373 51.0046 29.1373C51.5681 29.1395 51.997 29.2781 52.2896 29.5534C52.584 29.8265 52.7313 30.2174 52.7332 30.7259V31.0915ZM54.9035 32.5162C54.9035 33.0562 55.0066 33.5143 55.2107 33.8946C55.4147 34.2728 55.7193 34.5607 56.1274 34.7603C56.5355 34.9599 57.0442 35.0608 57.6542 35.0629C59.08 35.0629 60.0011 34.483 60.4176 33.3231C60.4553 33.2222 60.4553 33.136 60.4195 33.0667C60.3818 32.9953 60.3101 32.9385 60.203 32.8944L59.7612 32.7683C59.6457 32.7221 59.5554 32.7158 59.4943 32.7452C59.4332 32.7767 59.3787 32.8502 59.3323 32.97C59.2124 33.3357 59.0171 33.6109 58.7414 33.7937C58.4682 33.9765 58.1149 34.0669 57.6794 34.0669C57.1411 34.0627 56.7352 33.9324 56.4577 33.6718C56.1801 33.4113 56.0411 33.0436 56.0389 32.5666V30.6629C56.0411 30.188 56.1801 29.8203 56.4577 29.5639C56.7352 29.3075 57.1411 29.1773 57.6794 29.1752C58.1149 29.1752 58.4682 29.2634 58.7414 29.4399C59.0127 29.6164 59.2061 29.8812 59.3199 30.2342C59.3641 30.3477 59.4208 30.4212 59.4921 30.4527C59.5616 30.4864 59.6479 30.4801 59.7488 30.4359L60.1906 30.2973C60.2977 30.2594 60.3672 30.2048 60.4008 30.1355C60.4323 30.064 60.4301 29.9757 60.3924 29.8686C60.2158 29.3075 59.9064 28.8852 59.4628 28.6036C59.0211 28.32 58.443 28.1792 57.7299 28.1792C57.1031 28.1813 56.5798 28.2821 56.1611 28.4797C55.7427 28.6793 55.4293 28.9672 55.2191 29.3454C55.0088 29.7215 54.9035 30.1775 54.9035 30.7133V32.5162ZM66.0071 32.2766C65.8748 32.0056 65.7234 31.7849 65.5552 31.6126C65.3847 31.4424 65.1997 31.3185 64.9979 31.2428L67.0168 28.7213C67.1115 28.6015 67.143 28.5133 67.1115 28.4544C67.0797 28.3977 66.985 28.3683 66.8274 28.3683H66.348C66.228 28.3662 66.1333 28.3704 66.066 28.3788C65.9969 28.3872 65.9399 28.4082 65.8938 28.4418C65.8495 28.4734 65.8031 28.5259 65.7548 28.5953L63.8748 31.0285H63.7611H62.7646V28.6709C62.7664 28.5532 62.7434 28.4734 62.6973 28.4292C62.6487 28.3872 62.5668 28.3662 62.449 28.3683H61.9444C61.8266 28.3662 61.7444 28.3872 61.6961 28.4292C61.65 28.4734 61.6266 28.5532 61.6288 28.6709V34.5586C61.6266 34.6763 61.65 34.7582 61.6961 34.8065C61.7444 34.8528 61.8266 34.8759 61.9444 34.8738H62.449C62.5668 34.8759 62.6487 34.8528 62.6973 34.8065C62.7434 34.7582 62.7664 34.6763 62.7646 34.5586V32.0749H63.9129C64.1081 32.0749 64.2764 32.0959 64.4175 32.1422C64.5583 32.1884 64.6782 32.2619 64.7792 32.3649C64.8801 32.4657 64.9704 32.6002 65.0483 32.7683L65.919 34.5965C65.9548 34.6742 65.9903 34.7351 66.0283 34.775C66.0642 34.815 66.1147 34.8422 66.1754 34.8549C66.2386 34.8675 66.3249 34.8738 66.4361 34.8738H66.9283C67.0735 34.8738 67.1598 34.8464 67.189 34.7918C67.2187 34.7351 67.1934 34.6447 67.1177 34.5208L66.0071 32.2766ZM68.5055 28.3683C68.3877 28.3662 68.308 28.3872 68.2638 28.4292C68.2217 28.4734 68.2005 28.5532 68.2027 28.6709V34.5712C68.2027 34.7729 68.3036 34.8738 68.5055 34.8738H69.0357C69.1619 34.8738 69.2628 34.8234 69.3385 34.7225L72.0512 31.0285C72.1964 30.8205 72.3287 30.6208 72.4465 30.4296C72.5664 30.2384 72.6695 30.0514 72.7577 29.8686H72.7957C72.7262 30.1964 72.6758 30.499 72.6421 30.7784C72.6107 31.0558 72.5939 31.3122 72.5939 31.5454V34.5712C72.5917 34.6889 72.6129 34.7687 72.6549 34.8128C72.6988 34.8549 72.7789 34.8759 72.8966 34.8738H73.4265C73.5443 34.8759 73.6244 34.8549 73.6686 34.8128C73.7107 34.7687 73.7315 34.6889 73.7293 34.5712V28.6709C73.7315 28.5532 73.7107 28.4734 73.6686 28.4292C73.6244 28.3872 73.5443 28.3662 73.4265 28.3683H72.8966C72.8334 28.3683 72.7767 28.3809 72.7284 28.4061C72.6802 28.4314 72.6381 28.4692 72.6063 28.5196L69.8556 32.2514C69.578 32.617 69.351 32.9953 69.1743 33.3861H69.1367C69.2058 33.115 69.2562 32.844 69.2899 32.5708C69.3217 32.2998 69.3385 32.0245 69.3385 31.7471V28.6709C69.3404 28.5532 69.3195 28.4734 69.2775 28.4292C69.2332 28.3872 69.1535 28.3662 69.0357 28.3683H68.5055ZM75.067 32.4405C75.067 32.9805 75.1701 33.447 75.376 33.8378C75.5822 34.2287 75.8912 34.5292 76.3055 34.7414C76.7221 34.9536 77.2413 35.0608 77.8681 35.0629C78.5242 35.0629 79.0793 34.9557 79.5316 34.7393C79.9858 34.525 80.335 34.1993 80.5808 33.7643C80.7197 33.55 80.6817 33.3861 80.4674 33.2726L80.1266 33.0961C80.0216 33.0268 79.9309 33.0015 79.8574 33.0205C79.7817 33.0394 79.7082 33.1024 79.6347 33.2096C79.4643 33.4996 79.2307 33.7181 78.9385 33.863C78.6441 34.0081 78.2908 34.0795 77.8806 34.0795C77.3298 34.0774 76.9111 33.9471 76.623 33.6866C76.337 33.4281 76.1918 33.0541 76.19 32.5666V31.9614H80.3032C80.4612 31.9614 80.5789 31.9236 80.6546 31.8501C80.7325 31.7744 80.7702 31.6652 80.7702 31.5202V30.7889C80.7702 30.2636 80.6609 29.8076 80.4462 29.4168C80.2297 29.0281 79.9101 28.7234 79.4874 28.5091C79.0646 28.2927 78.541 28.1834 77.9186 28.1792C77.3002 28.1813 76.7787 28.2864 76.3538 28.4965C75.9311 28.7087 75.6115 29.0134 75.395 29.4147C75.1763 29.816 75.067 30.3035 75.067 30.8772V32.4405ZM79.6472 31.0915H76.19V30.7259C76.19 30.3918 76.2573 30.1081 76.3875 29.8707C76.5202 29.6354 76.7155 29.4526 76.9722 29.3286C77.2289 29.2025 77.5441 29.1373 77.9186 29.1373C78.4821 29.1395 78.9111 29.2781 79.2036 29.5534C79.498 29.8265 79.645 30.2174 79.6472 30.7259V31.0915ZM89.2874 32.2766C89.1546 32.0056 89.0032 31.7849 88.835 31.6126C88.665 31.4424 88.4796 31.3185 88.2777 31.2428L90.2966 28.7213C90.3913 28.6015 90.4228 28.5133 90.3914 28.4544C90.3599 28.3977 90.2652 28.3683 90.1076 28.3683H89.6278C89.5082 28.3662 89.4135 28.3704 89.3462 28.3788C89.2767 28.3872 89.2201 28.4082 89.1736 28.4418C89.1294 28.4734 89.0833 28.5259 89.035 28.5953L87.1547 31.0285H87.0413H86.0445V28.6709C86.0467 28.5532 86.0233 28.4734 85.9772 28.4292C85.9289 28.3872 85.8466 28.3662 85.7289 28.3683H85.2242C85.1065 28.3662 85.0246 28.3872 84.9763 28.4292C84.9299 28.4734 84.9068 28.5532 84.909 28.6709V34.5586C84.9068 34.6763 84.9299 34.7582 84.9763 34.8065C85.0246 34.8528 85.1065 34.8759 85.2242 34.8738H85.7289C85.8466 34.8759 85.9289 34.8528 85.9772 34.8065C86.0233 34.7582 86.0467 34.6763 86.0445 34.5586V32.0749H87.1927C87.3884 32.0749 87.5566 32.0959 87.6974 32.1422C87.8381 32.1884 87.9581 32.2619 88.059 32.3649C88.1599 32.4657 88.2506 32.6002 88.3282 32.7683L89.1989 34.5965C89.2347 34.6742 89.2705 34.7351 89.3082 34.775C89.344 34.815 89.3945 34.8422 89.4556 34.8549C89.5185 34.8675 89.6048 34.8738 89.7163 34.8738H90.2085C90.3533 34.8738 90.4396 34.8464 90.4692 34.7918C90.4985 34.7351 90.4733 34.6447 90.3976 34.5208L89.2874 32.2766ZM91.2811 32.6548C91.2829 33.1571 91.3966 33.5878 91.6215 33.945C91.8464 34.3044 92.1682 34.5796 92.5891 34.7729C93.0097 34.9641 93.5165 35.0608 94.1074 35.0629C94.7108 35.0608 95.2239 34.9641 95.6444 34.7729C96.0671 34.5796 96.3889 34.3044 96.612 33.945C96.8329 33.5878 96.9441 33.1571 96.9463 32.6548V30.5998C96.9441 30.0934 96.8329 29.6606 96.612 29.2992C96.3889 28.9398 96.0671 28.6625 95.6444 28.4713C95.2239 28.2779 94.7108 28.1813 94.1074 28.1792C93.5165 28.1813 93.0097 28.2779 92.5891 28.4713C92.1682 28.6625 91.8464 28.9398 91.6215 29.2992C91.3966 29.6606 91.2829 30.0934 91.2811 30.5998V32.6548ZM95.8232 32.6548C95.8232 32.9448 95.7538 33.1949 95.6174 33.4008C95.4806 33.6067 95.285 33.7664 95.0282 33.8757C94.7741 33.9849 94.4669 34.0417 94.1074 34.0417C93.752 34.0417 93.4492 33.9849 93.1947 33.8757C92.9402 33.7664 92.7467 33.6067 92.61 33.4008C92.4732 33.1949 92.4059 32.9448 92.4037 32.6548V30.5872C92.4059 30.2951 92.4732 30.0472 92.61 29.8413C92.7467 29.6332 92.9402 29.4757 93.1947 29.3664C93.4492 29.2571 93.752 29.2004 94.1074 29.2004C94.4669 29.2004 94.7741 29.2571 95.0282 29.3664C95.285 29.4757 95.4806 29.6332 95.6174 29.8413C95.7538 30.0472 95.8232 30.2951 95.8232 30.5872V32.6548ZM102.94 28.3683C102.833 28.3662 102.757 28.3872 102.708 28.4292C102.66 28.4734 102.637 28.5532 102.637 28.6709V31.0285H99.4446V28.6709C99.4468 28.5532 99.4256 28.4734 99.3835 28.4292C99.3397 28.3872 99.2596 28.3662 99.1418 28.3683H98.6119C98.4942 28.3662 98.4141 28.3872 98.3699 28.4292C98.3282 28.4734 98.307 28.5532 98.3092 28.6709V34.5712C98.3092 34.7729 98.4101 34.8738 98.6119 34.8738H99.1418C99.2596 34.8759 99.3397 34.8549 99.3835 34.8128C99.4256 34.7687 99.4468 34.6889 99.4446 34.5712V32.0749H102.637V34.5712C102.637 34.6889 102.66 34.7687 102.708 34.8128C102.757 34.8549 102.833 34.8759 102.94 34.8738H103.47C103.577 34.8759 103.653 34.8549 103.701 34.8128C103.749 34.7687 103.772 34.6889 103.772 34.5712V28.6709C103.772 28.5532 103.749 28.4734 103.701 28.4292C103.653 28.3872 103.577 28.3662 103.47 28.3683H102.94ZM105.123 32.5162C105.123 33.0562 105.226 33.5143 105.43 33.8946C105.634 34.2728 105.939 34.5607 106.347 34.7603C106.755 34.9599 107.264 35.0608 107.873 35.0629C109.299 35.0629 110.22 34.483 110.637 33.3231C110.674 33.2222 110.674 33.136 110.639 33.0667C110.601 32.9953 110.53 32.9385 110.422 32.8944L109.981 32.7683C109.865 32.7221 109.774 32.7158 109.713 32.7452C109.653 32.7767 109.598 32.8502 109.552 32.97C109.432 33.3357 109.236 33.6109 108.961 33.7937C108.687 33.9765 108.334 34.0669 107.899 34.0669C107.36 34.0627 106.954 33.9324 106.677 33.6718C106.399 33.4113 106.26 33.0436 106.258 32.5666V30.6629C106.26 30.188 106.399 29.8203 106.677 29.5639C106.954 29.3075 107.36 29.1773 107.899 29.1752C108.334 29.1752 108.687 29.2634 108.961 29.4399C109.232 29.6164 109.425 29.8812 109.539 30.2342C109.583 30.3477 109.64 30.4212 109.712 30.4527C109.781 30.4864 109.867 30.4801 109.968 30.4359L110.41 30.2973C110.517 30.2594 110.586 30.2048 110.62 30.1355C110.651 30.064 110.649 29.9757 110.612 29.8686C110.435 29.3075 110.126 28.8852 109.682 28.6036C109.24 28.32 108.662 28.1792 107.949 28.1792C107.323 28.1813 106.799 28.2821 106.38 28.4797C105.962 28.6793 105.648 28.9672 105.438 29.3454C105.228 29.7215 105.123 30.1775 105.123 30.7133V32.5162ZM116.466 28.3683C116.359 28.3662 116.283 28.3872 116.235 28.4292C116.186 28.4734 116.163 28.5532 116.163 28.6709V33.5248C115.88 33.613 115.602 33.6802 115.332 33.7244C115.062 33.7685 114.801 33.7895 114.548 33.7895C114.018 33.7895 113.621 33.6634 113.356 33.4134C113.091 33.1613 112.958 32.7872 112.958 32.2892V28.6709C112.961 28.5637 112.937 28.4881 112.893 28.4398C112.849 28.3914 112.773 28.3683 112.668 28.3683H112.138C112.021 28.3662 111.941 28.3872 111.897 28.4292C111.854 28.4734 111.833 28.5532 111.835 28.6709V32.3271C111.835 33.1592 112.05 33.7832 112.477 34.1993C112.906 34.6153 113.545 34.8234 114.397 34.8234C114.662 34.8234 114.942 34.8002 115.238 34.7561C115.533 34.712 115.842 34.6468 116.163 34.5586V35.2394C116.163 35.7941 116.029 36.2102 115.757 36.4876C115.488 36.7649 115.085 36.9037 114.548 36.9037C114.189 36.9037 113.88 36.8343 113.619 36.6936C113.36 36.5548 113.148 36.3426 112.984 36.0589C112.935 35.9916 112.887 35.9433 112.843 35.9139C112.796 35.8845 112.746 35.874 112.691 35.8803C112.637 35.8845 112.569 35.9076 112.492 35.9454L112.125 36.1471C112.018 36.2039 111.953 36.2711 111.93 36.3489C111.907 36.4266 111.93 36.5191 111.999 36.6264C112.245 37.055 112.58 37.3766 113.007 37.5907C113.432 37.8051 113.949 37.9122 114.561 37.9122C116.378 37.9122 117.286 37.0046 117.286 35.189V28.6709C117.289 28.5532 117.267 28.4734 117.225 28.4292C117.181 28.3872 117.101 28.3662 116.984 28.3683H116.466ZM119.81 28.3683C119.692 28.3662 119.612 28.3872 119.568 28.4292C119.526 28.4734 119.505 28.5532 119.507 28.6709V30.6377C119.507 31.2933 119.476 31.8417 119.41 32.2829C119.343 32.7242 119.242 33.0583 119.103 33.2852C119.013 33.4344 118.931 33.55 118.855 33.634C118.779 33.7181 118.699 33.7895 118.616 33.8442C118.532 33.8988 118.428 33.9555 118.308 34.0165C118.239 34.0606 118.195 34.111 118.176 34.1699C118.157 34.2266 118.163 34.2938 118.195 34.3695L118.46 34.8738C118.504 34.9557 118.555 35.0083 118.616 35.0335C118.674 35.0587 118.744 35.0566 118.826 35.0251C118.996 34.9431 119.15 34.857 119.286 34.7666C119.421 34.6742 119.549 34.5628 119.669 34.4304C119.791 34.298 119.913 34.132 120.037 33.9282C120.226 33.6256 120.367 33.2033 120.462 32.6654C120.557 32.1274 120.605 31.4761 120.605 30.7133V29.4147H123.04V34.5712C123.038 34.6889 123.059 34.7687 123.101 34.8128C123.145 34.8549 123.225 34.8759 123.343 34.8738H123.86C123.967 34.8759 124.043 34.8549 124.092 34.8128C124.14 34.7687 124.163 34.6889 124.163 34.5712V28.6709C124.163 28.5532 124.14 28.4734 124.092 28.4292C124.043 28.3872 123.967 28.3662 123.86 28.3683H119.81ZM126.775 30.3351V28.6709C126.777 28.5532 126.756 28.4734 126.714 28.4292C126.67 28.3872 126.59 28.3662 126.472 28.3683H125.942C125.824 28.3662 125.745 28.3872 125.7 28.4292C125.658 28.4734 125.637 28.5532 125.639 28.6709V34.5712C125.637 34.6889 125.658 34.7687 125.7 34.8128C125.745 34.8549 125.824 34.8759 125.942 34.8738H128.731C129.216 34.8717 129.633 34.7792 129.978 34.5985C130.323 34.4178 130.588 34.1573 130.773 33.8168C130.958 33.4765 131.05 33.0688 131.053 32.5918C131.05 32.119 130.958 31.7156 130.773 31.3794C130.588 31.0432 130.323 30.7847 129.978 30.6062C129.633 30.4275 129.216 30.3372 128.731 30.3351H126.775ZM126.775 33.8652V31.3563H128.592C128.994 31.3605 129.305 31.4697 129.528 31.6862C129.751 31.9026 129.864 32.2031 129.866 32.5918C129.864 32.9932 129.751 33.3042 129.528 33.5269C129.305 33.7496 128.994 33.861 128.592 33.8652H126.775ZM131.873 28.3683C131.755 28.3662 131.675 28.3872 131.631 28.4292C131.589 28.4734 131.568 28.5532 131.57 28.6709V29.1121C131.568 29.2193 131.589 29.2949 131.631 29.3433C131.675 29.3916 131.755 29.4147 131.873 29.4147H133.715V34.5712C133.713 34.6889 133.734 34.7687 133.776 34.8128C133.82 34.8549 133.9 34.8759 134.018 34.8738H134.548C134.653 34.8759 134.728 34.8549 134.773 34.8128C134.817 34.7687 134.84 34.6889 134.838 34.5712V29.4147H136.68C136.787 29.4147 136.863 29.3916 136.912 29.3433C136.96 29.2949 136.983 29.2193 136.983 29.1121V28.6709C136.983 28.5532 136.96 28.4734 136.912 28.4292C136.863 28.3872 136.787 28.3662 136.68 28.3683H131.873ZM137.816 29.503C137.765 29.6038 137.753 29.69 137.78 29.7593C137.805 29.8307 137.873 29.8875 137.98 29.9316L138.371 30.1081C138.449 30.1376 138.51 30.1522 138.552 30.1522C138.594 30.1522 138.632 30.1376 138.665 30.106C138.699 30.0724 138.739 30.0241 138.787 29.9568C138.945 29.6984 139.153 29.5051 139.414 29.379C139.672 29.2508 139.986 29.1878 140.352 29.1878C140.72 29.1878 141.014 29.2466 141.235 29.3601C141.456 29.4757 141.614 29.6438 141.71 29.8665C141.807 30.0913 141.856 30.3645 141.853 30.6881V31.1672C141.601 31.1356 141.355 31.1125 141.115 31.0999C140.876 31.0852 140.642 31.0789 140.415 31.0789C139.74 31.0768 139.197 31.1398 138.783 31.268C138.369 31.3962 138.068 31.6042 137.879 31.8942C137.692 32.1863 137.599 32.5729 137.601 33.0583C137.601 33.405 137.652 33.7055 137.75 33.9576C137.851 34.2098 137.999 34.4136 138.194 34.5712C138.39 34.7351 138.669 34.857 139.033 34.9389C139.397 35.0209 139.841 35.0629 140.364 35.0629C140.838 35.0629 141.254 35.0356 141.616 34.9788C141.975 34.9242 142.282 34.8422 142.535 34.7351C142.652 34.6868 142.743 34.6342 142.81 34.5796C142.876 34.525 142.922 34.4535 142.949 34.3653C142.976 34.277 142.989 34.1615 142.989 34.0165V30.7259C142.991 30.1985 142.907 29.7447 142.735 29.3643C142.562 28.9861 142.285 28.694 141.902 28.4881C141.517 28.2842 141.01 28.1813 140.377 28.1792C139.753 28.1792 139.227 28.2884 138.798 28.5091C138.371 28.7297 138.043 29.0617 137.816 29.503ZM141.853 33.6887C141.853 33.758 141.839 33.8147 141.807 33.861C141.776 33.9051 141.727 33.9408 141.664 33.9661C141.374 34.0669 140.907 34.1173 140.263 34.1173C139.874 34.1173 139.569 34.0795 139.347 34.0017C139.124 33.9261 138.964 33.8084 138.871 33.653C138.779 33.4954 138.734 33.2978 138.737 33.0583C138.734 32.8103 138.783 32.6086 138.882 32.4531C138.981 32.2976 139.143 32.1821 139.37 32.1085C139.599 32.035 139.904 31.9993 140.289 31.9993C140.472 31.9993 140.695 32.0077 140.957 32.0266C141.22 32.0434 141.519 32.0686 141.853 32.1001V33.6887ZM149.79 33.8274V28.6709C149.79 28.5532 149.767 28.4734 149.719 28.4292C149.67 28.3872 149.595 28.3662 149.487 28.3683H148.957C148.85 28.3662 148.774 28.3872 148.726 28.4292C148.677 28.4734 148.654 28.5532 148.654 28.6709V33.8274H145.588V28.6709C145.59 28.5532 145.57 28.4734 145.527 28.4292C145.483 28.3872 145.403 28.3662 145.285 28.3683H144.755C144.554 28.3683 144.453 28.4692 144.453 28.6709V34.5712C144.451 34.6889 144.472 34.7687 144.514 34.8128C144.558 34.8549 144.638 34.8759 144.755 34.8738H149.638V36.3237C149.638 36.4308 149.662 36.5065 149.71 36.5548C149.758 36.603 149.836 36.6264 149.941 36.6264H150.433C150.551 36.6264 150.631 36.603 150.676 36.5548C150.718 36.5065 150.738 36.4308 150.736 36.3237V34.1426C150.738 34.0249 150.718 33.9429 150.676 33.8946C150.631 33.8484 150.551 33.8252 150.433 33.8274H149.79Z" fill="#140A32"/>
<path id="Vector_6" d="M152.035 28.3686C151.918 28.3665 151.838 28.3875 151.794 28.4296C151.752 28.4737 151.73 28.5535 151.733 28.6712V34.5715C151.733 34.7732 151.834 34.8741 152.035 34.8741H152.565C152.691 34.8741 152.792 34.8237 152.868 34.7228L155.581 31.0288C155.726 30.8208 155.859 30.6211 155.976 30.43C156.096 30.2388 156.199 30.0517 156.288 29.8689H156.326C156.256 30.1967 156.206 30.4993 156.172 30.7787C156.141 31.0561 156.124 31.3125 156.124 31.5457V34.5715C156.122 34.6892 156.142 34.7691 156.185 34.8132C156.229 34.8552 156.309 34.8762 156.427 34.8741H156.956C157.074 34.8762 157.154 34.8552 157.198 34.8132C157.24 34.7691 157.261 34.6892 157.259 34.5715V28.6712C157.261 28.5535 157.24 28.4737 157.198 28.4296C157.154 28.3875 157.074 28.3665 156.956 28.3686H156.427C156.363 28.3686 156.307 28.3812 156.258 28.4065C156.21 28.4317 156.168 28.4695 156.136 28.5199L153.385 32.2517C153.108 32.6173 152.881 32.9956 152.704 33.3864H152.666C152.736 33.1154 152.786 32.8443 152.82 32.5711C152.851 32.3001 152.868 32.0248 152.868 31.7474V28.6712C152.87 28.5535 152.849 28.4737 152.807 28.4296C152.763 28.3875 152.683 28.3665 152.565 28.3686H152.035ZM159.127 28.3686C159.009 28.3665 158.929 28.3875 158.885 28.4296C158.843 28.4737 158.822 28.5535 158.824 28.6712V34.5715C158.824 34.7732 158.925 34.8741 159.127 34.8741H159.657C159.783 34.8741 159.884 34.8237 159.959 34.7228L162.672 31.0288C162.818 30.8208 162.95 30.6211 163.068 30.43C163.188 30.2388 163.29 30.0517 163.379 29.8689H163.417C163.347 30.1967 163.297 30.4993 163.263 30.7787C163.232 31.0561 163.215 31.3125 163.215 31.5457V34.5715C163.213 34.6892 163.234 34.7691 163.276 34.8132C163.32 34.8552 163.4 34.8762 163.518 34.8741H164.048C164.165 34.8762 164.245 34.8552 164.289 34.8132C164.332 34.7691 164.353 34.6892 164.351 34.5715V28.6712C164.353 28.5535 164.332 28.4737 164.289 28.4296C164.245 28.3875 164.165 28.3665 164.048 28.3686H163.518C163.455 28.3686 163.398 28.3812 163.349 28.4065C163.301 28.4317 163.259 28.4695 163.228 28.5199L160.477 32.2517C160.199 32.6173 159.972 32.9956 159.796 33.3864H159.758C159.827 33.1154 159.877 32.8443 159.911 32.5711C159.943 32.3001 159.959 32.0248 159.959 31.7474V28.6712C159.962 28.5535 159.94 28.4737 159.898 28.4296C159.854 28.3875 159.774 28.3665 159.657 28.3686H159.127ZM168.59 32.6552C168.592 33.1574 168.706 33.5881 168.931 33.9454C169.156 34.3047 169.477 34.5799 169.898 34.7732C170.319 34.9645 170.826 35.0611 171.417 35.0632C172.02 35.0611 172.533 34.9645 172.954 34.7732C173.376 34.5799 173.698 34.3047 173.921 33.9454C174.142 33.5881 174.253 33.1574 174.255 32.6552V30.6002C174.253 30.0937 174.142 29.6609 173.921 29.2995C173.698 28.9401 173.376 28.6628 172.954 28.4716C172.533 28.2783 172.02 28.1816 171.417 28.1795C170.826 28.1816 170.319 28.2783 169.898 28.4716C169.477 28.6628 169.156 28.9401 168.931 29.2995C168.706 29.6609 168.592 30.0937 168.59 30.6002V32.6552ZM173.132 32.6552C173.132 32.9452 173.063 33.1952 172.927 33.4011C172.79 33.607 172.594 33.7667 172.337 33.876C172.083 33.9853 171.776 34.042 171.417 34.042C171.061 34.042 170.758 33.9853 170.504 33.876C170.249 33.7667 170.056 33.607 169.919 33.4011C169.782 33.1952 169.715 32.9452 169.713 32.6552V30.5876C169.715 30.2955 169.782 30.0475 169.919 29.8416C170.056 29.6335 170.249 29.476 170.504 29.3667C170.758 29.2574 171.061 29.2007 171.417 29.2007C171.776 29.2007 172.083 29.2574 172.337 29.3667C172.594 29.476 172.79 29.6335 172.927 29.8416C173.063 30.0475 173.132 30.2955 173.132 30.5876V32.6552ZM180.249 28.3686C180.142 28.3665 180.066 28.3875 180.018 28.4296C179.969 28.4737 179.946 28.5535 179.946 28.6712V31.0288H176.754V28.6712C176.756 28.5535 176.735 28.4737 176.693 28.4296C176.649 28.3875 176.569 28.3665 176.451 28.3686H175.921C175.803 28.3665 175.723 28.3875 175.679 28.4296C175.637 28.4737 175.616 28.5535 175.618 28.6712V34.5715C175.618 34.7732 175.719 34.8741 175.921 34.8741H176.451C176.569 34.8762 176.649 34.8552 176.693 34.8132C176.735 34.7691 176.756 34.6892 176.754 34.5715V32.0752H179.946V34.5715C179.946 34.6892 179.969 34.7691 180.018 34.8132C180.066 34.8552 180.142 34.8762 180.249 34.8741H180.779C180.886 34.8762 180.962 34.8552 181.01 34.8132C181.059 34.7691 181.082 34.6892 181.082 34.5715V28.6712C181.082 28.5535 181.059 28.4737 181.01 28.4296C180.962 28.3875 180.886 28.3665 180.779 28.3686H180.249ZM183.631 28.3686C183.513 28.3665 183.433 28.3875 183.389 28.4296C183.347 28.4737 183.326 28.5535 183.328 28.6712V30.638C183.328 31.2936 183.296 31.842 183.231 32.2833C183.164 32.7245 183.063 33.0586 182.924 33.2856C182.834 33.4347 182.751 33.5503 182.676 33.6344C182.6 33.7184 182.52 33.7899 182.436 33.8445C182.352 33.8991 182.249 33.9559 182.129 34.0168C182.06 34.0609 182.016 34.1114 181.997 34.1702C181.978 34.2269 181.984 34.2942 182.016 34.3698L182.28 34.8741C182.325 34.9561 182.375 35.0086 182.436 35.0338C182.495 35.059 182.565 35.0569 182.646 35.0254C182.817 34.9435 182.97 34.8573 183.107 34.7669C183.241 34.6745 183.37 34.5631 183.49 34.4307C183.611 34.2984 183.734 34.1324 183.858 33.9285C184.047 33.6259 184.188 33.2036 184.283 32.6657C184.377 32.1278 184.425 31.4764 184.425 30.7136V29.415H186.861V34.5715C186.859 34.6892 186.88 34.7691 186.922 34.8132C186.966 34.8552 187.046 34.8762 187.164 34.8741H187.681C187.788 34.8762 187.864 34.8552 187.912 34.8132C187.961 34.7691 187.984 34.6892 187.984 34.5715V28.6712C187.984 28.5535 187.961 28.4737 187.912 28.4296C187.864 28.3875 187.788 28.3665 187.681 28.3686H183.631ZM189.334 29.5033C189.283 29.6041 189.271 29.6903 189.298 29.7596C189.323 29.8311 189.391 29.8878 189.498 29.9319L189.889 30.1085C189.967 30.1379 190.028 30.1526 190.07 30.1526C190.112 30.1526 190.15 30.1379 190.184 30.1063C190.217 30.0727 190.257 30.0244 190.305 29.9572C190.463 29.6987 190.671 29.5054 190.932 29.3793C191.191 29.2512 191.504 29.1881 191.87 29.1881C192.238 29.1881 192.532 29.2469 192.753 29.3604C192.974 29.476 193.132 29.6441 193.229 29.8668C193.325 30.0917 193.374 30.3648 193.372 30.6884V31.1675C193.119 31.136 192.873 31.1129 192.633 31.1003C192.394 31.0855 192.16 31.0792 191.933 31.0792C191.258 31.0771 190.716 31.1402 190.301 31.2684C189.887 31.3966 189.586 31.6045 189.397 31.8945C189.21 32.1866 189.117 32.5732 189.119 33.0586C189.119 33.4053 189.17 33.7058 189.269 33.958C189.37 34.2101 189.517 34.4139 189.713 34.5715C189.908 34.7354 190.188 34.8573 190.551 34.9392C190.915 35.0212 191.359 35.0632 191.883 35.0632C192.356 35.0632 192.772 35.0359 193.134 34.9791C193.494 34.9245 193.801 34.8426 194.053 34.7354C194.171 34.6871 194.261 34.6346 194.329 34.5799C194.394 34.5253 194.44 34.4538 194.467 34.3656C194.495 34.2774 194.507 34.1618 194.507 34.0168V30.7262C194.509 30.1988 194.425 29.7449 194.253 29.3646C194.08 28.9864 193.803 28.6943 193.42 28.4884C193.035 28.2846 192.528 28.1816 191.895 28.1795C191.271 28.1795 190.745 28.2888 190.316 28.5094C189.889 28.73 189.561 29.062 189.334 29.5033ZM193.372 33.689C193.372 33.7583 193.357 33.8151 193.325 33.8613C193.294 33.9054 193.245 33.9411 193.182 33.9664C192.892 34.0672 192.425 34.1176 191.782 34.1176C191.393 34.1176 191.088 34.0798 190.865 34.0021C190.642 33.9264 190.482 33.8087 190.389 33.6533C190.297 33.4957 190.253 33.2982 190.255 33.0586C190.253 32.8107 190.301 32.6089 190.4 32.4535C190.499 32.298 190.661 32.1824 190.888 32.1088C191.117 32.0353 191.422 31.9996 191.807 31.9996C191.99 31.9996 192.213 32.008 192.476 32.0269C192.739 32.0437 193.037 32.0689 193.372 32.1005V33.689ZM200.728 26.1371C200.747 26.074 200.747 26.0194 200.726 25.9753C200.703 25.929 200.659 25.8912 200.589 25.8597L200.147 25.6958C200.021 25.658 199.933 25.6958 199.882 25.8093C199.718 26.364 199.352 26.6414 198.784 26.6414C198.501 26.6414 198.27 26.5721 198.091 26.4334C197.912 26.2947 197.781 26.0866 197.699 25.8093C197.674 25.7525 197.637 25.7168 197.586 25.7021C197.536 25.6874 197.472 25.6895 197.397 25.7085L197.005 25.8597C196.936 25.8786 196.892 25.9122 196.869 25.9606C196.848 26.0089 196.848 26.0677 196.867 26.1371C197.012 26.5847 197.243 26.9187 197.561 27.1415C197.878 27.3621 198.286 27.4735 198.784 27.4735C199.289 27.4735 199.704 27.3621 200.026 27.1415C200.349 26.9187 200.583 26.5847 200.728 26.1371ZM196.274 28.3686C196.156 28.3665 196.076 28.3875 196.032 28.4296C195.99 28.4737 195.969 28.5535 195.971 28.6712V34.5715C195.971 34.7732 196.072 34.8741 196.274 34.8741H196.804C196.93 34.8741 197.031 34.8237 197.106 34.7228L199.819 31.0288C199.965 30.8208 200.097 30.6211 200.215 30.43C200.335 30.2388 200.438 30.0517 200.526 29.8689H200.564C200.494 30.1967 200.444 30.4993 200.41 30.7787C200.379 31.0561 200.362 31.3125 200.362 31.5457V34.5715C200.36 34.6892 200.381 34.7691 200.423 34.8132C200.467 34.8552 200.547 34.8762 200.665 34.8741H201.195C201.312 34.8762 201.393 34.8552 201.436 34.8132C201.478 34.7691 201.5 34.6892 201.497 34.5715V28.6712C201.5 28.5535 201.478 28.4737 201.436 28.4296C201.393 28.3875 201.312 28.3665 201.195 28.3686H200.665C200.602 28.3686 200.545 28.3812 200.497 28.4065C200.448 28.4317 200.406 28.4695 200.374 28.5199L197.624 32.2517C197.346 32.6173 197.119 32.9956 196.943 33.3864H196.904C196.974 33.1154 197.024 32.8443 197.058 32.5711C197.09 32.3001 197.106 32.0248 197.106 31.7474V28.6712C197.109 28.5535 197.088 28.4737 197.046 28.4296C197.001 28.3875 196.921 28.3665 196.804 28.3686H196.274ZM207.693 28.3686C207.586 28.3665 207.51 28.3875 207.461 28.4296C207.413 28.4737 207.39 28.5535 207.39 28.6712V31.0288H204.198V28.6712C204.2 28.5535 204.179 28.4737 204.137 28.4296C204.093 28.3875 204.013 28.3665 203.895 28.3686H203.365C203.247 28.3665 203.167 28.3875 203.123 28.4296C203.081 28.4737 203.06 28.5535 203.062 28.6712V34.5715C203.062 34.7732 203.163 34.8741 203.365 34.8741H203.895C204.013 34.8762 204.093 34.8552 204.137 34.8132C204.179 34.7691 204.2 34.6892 204.198 34.5715V32.0752H207.39V34.5715C207.39 34.6892 207.413 34.7691 207.461 34.8132C207.51 34.8552 207.586 34.8762 207.693 34.8741H208.223C208.33 34.8762 208.406 34.8552 208.454 34.8132C208.503 34.7691 208.526 34.6892 208.526 34.5715V28.6712C208.526 28.5535 208.503 28.4737 208.454 28.4296C208.406 28.3875 208.33 28.3665 208.223 28.3686H207.693Z" fill="#140A32"/>
<path id="Vector_7" fill-rule="evenodd" clip-rule="evenodd" d="M12.6632 2.59718C11.9502 1.04735 10.952 0.272505 9.66855 0.189493C7.84313 0.18942 6.01785 0.189456 4.3636 0.189529C3.19435 1.57323 1.73979 3.39971 0 5.66898C2.3219 5.65166 4.83925 5.49374 7.41089 5.77337C9.4743 5.99775 11.1784 6.70152 12.4065 8.07664C12.5776 5.8904 12.6061 4.0915 12.6632 2.59718Z" fill="#115B82"/>
<path id="Vector_8" fill-rule="evenodd" clip-rule="evenodd" d="M12.6632 2.59718C11.9502 1.04735 10.952 0.272505 9.66855 0.189493C7.84313 0.18942 6.01785 0.189456 4.3636 0.189529C3.19435 1.57323 1.73979 3.39971 0 5.66898C2.3219 5.65166 4.83925 5.49374 7.41089 5.77337C9.4743 5.99775 11.1784 6.70152 12.4065 8.07664C12.5776 5.8904 12.6061 4.0915 12.6632 2.59718Z" fill="#115B82"/>
<path id="Vector_9" fill-rule="evenodd" clip-rule="evenodd" d="M5.29688 6.72778V24.0692H12.3845V9.68495C10.5261 7.45274 8.10617 6.84427 5.29688 6.72778Z" fill="#115B82"/>
<path id="Vector_10" fill-rule="evenodd" clip-rule="evenodd" d="M5.29688 6.72778V24.0692H12.3845V9.68495C10.5261 7.45274 8.10617 6.84427 5.29688 6.72778Z" fill="#115B82"/>
<path id="Vector_11" fill-rule="evenodd" clip-rule="evenodd" d="M29.0643 23.8346C25.8726 24.1027 22.2811 24.4926 19.3005 23.0338C17.6167 22.2098 16.2791 21.0443 15.3035 19.5376C13.2476 16.3623 12.903 9.12665 15.0695 5.18864C15.6341 4.16235 16.4317 3.37826 17.3717 2.69399C19.7125 0.989133 22.861 0.091014 26.8172 0C22.6164 3.33025 20.8301 5.78521 20.5184 9.51188C20.3461 11.5724 20.21 15.4918 21.949 16.8951C22.394 17.254 22.909 17.5588 23.492 17.7637C26.4189 18.7924 31.1151 18.2388 33.8179 17.9624C32.0607 20.8984 30.2456 22.9135 29.0643 23.8346Z" fill="#115B82"/>
<path id="Vector_12" fill-rule="evenodd" clip-rule="evenodd" d="M29.0643 23.8346C25.8726 24.1027 22.2811 24.4926 19.3005 23.0338C17.6167 22.2098 16.2791 21.0443 15.3035 19.5376C13.2476 16.3623 12.903 9.12665 15.0695 5.18864C15.6341 4.16235 16.4317 3.37826 17.3717 2.69399C19.7125 0.989133 22.861 0.091014 26.8172 0C22.6164 3.33025 20.8301 5.78521 20.5184 9.51188C20.3461 11.5724 20.21 15.4918 21.949 16.8951C22.394 17.254 22.909 17.5588 23.492 17.7637C26.4189 18.7924 31.1151 18.2388 33.8179 17.9624C32.0607 20.8984 30.2456 22.9135 29.0643 23.8346Z" fill="#115B82"/>
<path id="Vector_13" fill-rule="evenodd" clip-rule="evenodd" d="M51.3824 0.385235C54.5741 0.117163 58.1655 -0.272797 61.1462 1.18602C62.8302 2.01011 64.1675 3.17553 65.1432 4.68226C67.199 7.85763 67.5439 15.0932 65.3772 19.0312C64.8126 20.0575 64.015 20.8416 63.0752 21.5259C60.7345 23.2308 57.5855 24.1289 53.6296 24.2199C57.8306 20.8896 59.6166 18.4347 59.9285 14.708C60.1007 12.6475 60.2368 8.72809 58.4976 7.32475C58.0529 6.96584 57.5376 6.66107 56.9547 6.45616C54.0278 5.4275 49.3317 5.98113 46.6289 6.25747C48.386 3.3215 50.2013 1.30634 51.3824 0.385235Z" fill="#115B82"/>
<path id="Vector_14" fill-rule="evenodd" clip-rule="evenodd" d="M51.3824 0.385235C54.5741 0.117163 58.1655 -0.272797 61.1462 1.18602C62.8302 2.01011 64.1675 3.17553 65.1432 4.68226C67.199 7.85763 67.5439 15.0932 65.3772 19.0312C64.8126 20.0575 64.015 20.8416 63.0752 21.5259C60.7345 23.2308 57.5855 24.1289 53.6296 24.2199C57.8306 20.8896 59.6166 18.4347 59.9285 14.708C60.1007 12.6475 60.2368 8.72809 58.4976 7.32475C58.0529 6.96584 57.5376 6.66107 56.9547 6.45616C54.0278 5.4275 49.3317 5.98113 46.6289 6.25747C48.386 3.3215 50.2013 1.30634 51.3824 0.385235Z" fill="#115B82"/>
<path id="Vector_15" fill-rule="evenodd" clip-rule="evenodd" d="M30.5332 24.0076C33.8897 21.2077 35.9933 18.1084 36.4913 13.9976C36.6383 12.7843 36.6186 11.5569 36.7352 10.3398C36.963 7.96308 37.5467 5.56868 39.3389 3.75787C41.5224 1.55156 44.7814 0.442589 49.634 0.0864258C45.6309 3.67241 44.1637 6.60031 43.5805 11.1484C43.4389 12.2536 43.4122 13.3741 43.2309 14.473C42.2099 20.6527 37.1287 24.2758 30.5332 24.0076Z" fill="#115B82"/>
<path id="Vector_16" fill-rule="evenodd" clip-rule="evenodd" d="M30.5332 24.0076C33.8897 21.2077 35.9933 18.1084 36.4913 13.9976C36.6383 12.7843 36.6186 11.5569 36.7352 10.3398C36.963 7.96308 37.5467 5.56868 39.3389 3.75787C41.5224 1.55156 44.7814 0.442589 49.634 0.0864258C45.6309 3.67241 44.1637 6.60031 43.5805 11.1484C43.4389 12.2536 43.4122 13.3741 43.2309 14.473C42.2099 20.6527 37.1287 24.2758 30.5332 24.0076Z" fill="#115B82"/>
<path id="Vector_17" fill-rule="evenodd" clip-rule="evenodd" d="M35.4822 7.88397C34.421 7.02937 33.4882 6.61312 32.4767 6.3583C29.5862 5.63013 26.1918 6.05346 23.0762 6.14982C24.8117 3.08834 26.6115 1.16152 28.4114 0.176702C29.9129 0.124491 31.3269 0.127962 32.668 0.201621C34.2229 0.287008 35.4852 0.463555 36.9272 1.05867C37.8673 1.4468 38.4572 1.81649 38.6964 2.16776C36.9177 3.85907 35.8465 5.78589 35.4822 7.88397Z" fill="#115B82"/>
<path id="Vector_18" fill-rule="evenodd" clip-rule="evenodd" d="M35.4822 7.88397C34.421 7.02937 33.4882 6.61312 32.4767 6.3583C29.5862 5.63013 26.1918 6.05346 23.0762 6.14982C24.8117 3.08834 26.6115 1.16152 28.4114 0.176702C29.9129 0.124491 31.3269 0.127962 32.668 0.201621C34.2229 0.287008 35.4852 0.463555 36.9272 1.05867C37.8673 1.4468 38.4572 1.81649 38.6964 2.16776C36.9177 3.85907 35.8465 5.78589 35.4822 7.88397Z" fill="#115B82"/>
<path id="Vector_19" fill-rule="evenodd" clip-rule="evenodd" d="M44.1701 16.3359C45.2598 17.1905 46.2175 17.6068 47.2561 17.8616C50.224 18.5898 53.7093 18.1664 56.9083 18.0701C55.1263 21.1316 53.2782 23.0584 51.4304 24.0432C49.8886 24.0954 48.4365 24.0919 47.0597 24.0183C45.4631 23.9329 44.1671 23.7564 42.6865 23.1612C41.7211 22.7731 41.1155 22.4034 40.8701 22.0522C42.696 20.3609 43.796 18.434 44.1701 16.3359Z" fill="#115B82"/>
<path id="Vector_20" fill-rule="evenodd" clip-rule="evenodd" d="M44.1701 16.3359C45.2598 17.1905 46.2175 17.6068 47.2561 17.8616C50.224 18.5898 53.7093 18.1664 56.9083 18.0701C55.1263 21.1316 53.2782 23.0584 51.4304 24.0432C49.8886 24.0954 48.4365 24.0919 47.0597 24.0183C45.4631 23.9329 44.1671 23.7564 42.6865 23.1612C41.7211 22.7731 41.1155 22.4034 40.8701 22.0522C42.696 20.3609 43.796 18.434 44.1701 16.3359Z" fill="#115B82"/>
</g>
<defs>
<clipPath id="clip0_277_2406">
<rect width="211" height="38" fill="white"/>
</clipPath>
</defs>
</svg>
