<svg width="24" height="24" viewBox="0 0 24 24" fill="none" xmlns="http://www.w3.org/2000/svg">
<g id="shield-check">
<path id="Vector (Stroke)" fill-rule="evenodd" clip-rule="evenodd" d="M7.96978 10.9697C8.26268 10.6768 8.73755 10.6768 9.03044 10.9697L11.5001 13.4393L15.9698 8.96967C16.2627 8.67678 16.7376 8.67678 17.0304 8.96967C17.3233 9.26256 17.3233 9.73744 17.0304 10.0303L12.0304 15.0303C11.7376 15.3232 11.2627 15.3232 10.9698 15.0303L7.96978 12.0303C7.67689 11.7374 7.67689 11.2626 7.96978 10.9697Z" fill="#33836E"/>
<path id="Vector (Stroke)_2" fill-rule="evenodd" clip-rule="evenodd" d="M11.4035 1.36431C11.7964 1.277 12.2037 1.277 12.5966 1.36431L20.2587 3.06702C21.1474 3.26451 21.742 4.10939 21.6121 5.01863L19.7425 18.1061C19.6968 18.426 19.5314 19.5137 18.4051 20.4999C17.2917 21.4748 15.3559 22.25 12 22.25C8.64416 22.25 6.70833 21.4748 5.59496 20.4999C4.46862 19.5137 4.30324 18.426 4.25755 18.1061L2.38791 5.01863C2.25802 4.10939 2.85258 3.26451 3.74129 3.06702L11.4035 1.36431ZM12.2712 2.82859C12.0926 2.78891 11.9074 2.78891 11.7288 2.82859L4.06669 4.5313C3.93521 4.56051 3.85493 4.68117 3.87283 4.8065L5.7436 17.9019C5.77009 18.0884 5.86275 18.7407 6.58309 19.3714C7.32705 20.0228 8.85586 20.75 12 20.75C15.1442 20.75 16.673 20.0228 17.4169 19.3714C18.1373 18.7407 18.2299 18.0884 18.2564 17.9019L20.1272 4.8065C20.1451 4.68117 20.0648 4.56051 19.9333 4.5313L12.2712 2.82859Z" fill="#33836E"/>
</g>
</svg>
