<svg width="24" height="24" viewBox="0 0 24 24" fill="none" xmlns="http://www.w3.org/2000/svg">
<g id="telegram">
<path id="Vector" fill-rule="evenodd" clip-rule="evenodd" d="M3.27053 11.4347C8.23172 9.2732 11.54 7.8482 13.1952 7.15971C17.9214 5.19394 18.9035 4.85246 19.5436 4.84118C19.6843 4.8387 19.9991 4.87359 20.203 5.03905C20.3752 5.17875 20.4226 5.36747 20.4452 5.49992C20.4679 5.63238 20.4961 5.93411 20.4737 6.16988C20.2176 8.86087 19.1094 15.3912 18.5456 18.4052C18.307 19.6805 17.8373 20.1081 17.3825 20.1499C16.3943 20.2409 15.6438 19.4968 14.6866 18.8694C13.1888 17.8875 12.3426 17.2763 10.8887 16.3182C9.20843 15.211 10.2977 14.6024 11.2552 13.6078C11.5058 13.3475 15.8602 9.38687 15.9445 9.02758C15.9551 8.98264 15.9648 8.81514 15.8653 8.7267C15.7658 8.63825 15.619 8.6685 15.513 8.69255C15.3628 8.72665 12.9699 10.3082 8.33455 13.4372C7.65536 13.9036 7.04017 14.1308 6.48898 14.1189C5.88133 14.1058 4.71248 13.7754 3.84355 13.4929C2.77777 13.1465 1.93072 12.9633 2.00448 12.3749C2.0429 12.0685 2.46491 11.7551 3.27053 11.4347Z" fill="url(#paint0_linear_277_2433)"/>
</g>
<defs>
<linearGradient id="paint0_linear_277_2433" x1="11.241" y1="4.84106" x2="11.241" y2="20.0439" gradientUnits="userSpaceOnUse">
<stop stop-color="#2AABEE"/>
<stop offset="1" stop-color="#229ED9"/>
</linearGradient>
</defs>
</svg>
